<?xml version="1.0" encoding="UTF-8" standalone="no"?>
<!-- Created with Inkscape (http://www.inkscape.org/) -->

<svg
   xmlns:dc="http://purl.org/dc/elements/1.1/"
   xmlns:cc="http://creativecommons.org/ns#"
   xmlns:rdf="http://www.w3.org/1999/02/22-rdf-syntax-ns#"
   xmlns:svg="http://www.w3.org/2000/svg"
   xmlns="http://www.w3.org/2000/svg"
   xmlns:xlink="http://www.w3.org/1999/xlink"
   xmlns:sodipodi="http://sodipodi.sourceforge.net/DTD/sodipodi-0.dtd"
   xmlns:inkscape="http://www.inkscape.org/namespaces/inkscape"
   width="744.09448819"
   height="1052.3622047"
   id="svg2"
   version="1.1"
   inkscape:version="0.48.4 r9939"
   sodipodi:docname="New document 1">
  <defs
     id="defs4" />
  <sodipodi:namedview
     id="base"
     pagecolor="#ffffff"
     bordercolor="#666666"
     borderopacity="1.0"
     inkscape:pageopacity="0.0"
     inkscape:pageshadow="2"
     inkscape:zoom="1.4"
     inkscape:cx="360.23778"
     inkscape:cy="295.09843"
     inkscape:document-units="px"
     inkscape:current-layer="layer1"
     showgrid="false"
     inkscape:window-width="1680"
     inkscape:window-height="1028"
     inkscape:window-x="-8"
     inkscape:window-y="-8"
     inkscape:window-maximized="1" />
  <metadata
     id="metadata7">
    <rdf:RDF>
      <cc:Work
         rdf:about="">
        <dc:format>image/svg+xml</dc:format>
        <dc:type
           rdf:resource="http://purl.org/dc/dcmitype/StillImage" />
        <dc:title></dc:title>
      </cc:Work>
    </rdf:RDF>
  </metadata>
  <g
     inkscape:label="Layer 1"
     inkscape:groupmode="layer"
     id="layer1">
    <image
       y="58.535206"
       x="135.42526"
       id="image2993"
       xlink:href="file:///E:/Paws/Desktop/MUCK/Karen/Tabby/Yasha/dropbox/Screenshots/Pangolin-test-icon1.png"
       height="427.06696"
       width="429.63965" />
    <g
       id="g3032"
       transform="translate(-5.0507606,275.77165)">
      <path
         style="fill:#9e9e9e"
         d="m 388,545.03125 c -13.16182,0.0244 -27.4776,0.90563 -42.875,2.5625 -17.31888,1.86363 -27.1838,5.46586 -32.75,8.75 -4.66991,2.75531 -15.90917,5.89425 -23.59375,8.375 -7.68458,2.48075 -18.94509,7.21051 -25.3125,10.8125 -15.06475,8.522 -66.37128,62.06025 -71.125,73.4375 -2.02423,4.84466 -8.29319,13.93646 -12.40625,20.0625 -4.11305,6.12603 -7.70413,15.10134 -9.8125,21.46875 -5.50575,16.6278 -7.98858,58.84253 -4.40625,75.25 5.73239,26.25496 13.47,56.25687 22.21875,70.5 4.88445,7.95196 12.57199,20.09596 16.59375,28.21875 18.28169,36.92388 62.48644,69.41196 124.84375,85.6875 5.65992,1.47727 27.07653,2.37094 47.59375,2 36.23895,-0.65518 38.13019,-0.98136 65.71875,-10.9375 40.19639,-14.50605 72.70239,-37.86884 97.40625,-70.03125 15.44524,-20.10842 21.65061,-33.32039 28.65625,-60.9375 5.28604,-20.83817 3.39293,-26.46653 1.4375,-45.1875 -2.67259,-25.58651 -7.32087,-23.38975 -9.09375,-24.09375 -2.59176,-1.02917 -5.25491,0.24575 -19.65625,26.8125 -7.41108,13.67153 -18.68471,29.19954 -26.375,36.65625 -14.6183,14.17436 -36.42472,31.39388 -50,34.84375 -4.96789,1.2625 -29.91636,9.59199 -38.40625,11.96875 -20.61111,5.77009 -66.27041,3.45553 -81.5,-3.28125 -13.21322,-5.84482 -2.32656,-18.28583 13.09375,-23.375 5.7605,-8.39552 -1.97527,-22.43978 -3.125,-30.34375 -20.01088,-5.52528 -21.8613,-29.40549 -10,-42.03125 9.41802,-10.02503 21.21237,-6.34951 36.59375,9.53125 21.80952,22.51758 36.27677,21.98486 60.96875,-0.875 9.61409,-9.13529 4.39675,-22.03748 -0.15625,-31.5 -18.14494,0 -34.77976,-24.88007 -22.25,-33.65625 10.65396,-7.46232 27.19232,-14.74944 50.03125,-0.0937 10.50561,6.74144 25.57993,15.59375 42.625,15.59375 17.28821,0 18.50646,1.49127 27.8125,-5.25 22.1345,-16.03414 26.2382,-21.92179 10.0625,-46.03125 C 544.54933,650.60238 537.42997,637.80281 534.96875,631.5 524.36226,604.33829 507.52136,589.86618 466.375,562.6875 447.8904,550.47786 421.63576,544.96882 388,545.03125 z m -56.96875,15.125 c 0.66976,0.002 1.22605,0.16355 1.5625,0.5 0.64665,0.64666 0.40143,2.39713 -0.53125,3.90625 -2.05252,3.32104 -9.125,3.65797 -9.125,0.4375 0,-2.11892 5.19144,-4.85227 8.09375,-4.84375 z m 67.84375,4 c 5.36905,0.0534 5.74501,3.14887 2.5,12.78125 -1.44446,4.28768 -14.49122,4.11248 -20.5,-0.28125 -4.60314,-3.3659 -4.54541,-3.65995 1.4375,-7.5 3.42902,-2.20088 9.7238,-4.37505 13.96875,-4.84375 0.97515,-0.10767 1.82674,-0.16388 2.59375,-0.15625 z m -40.03125,0.5625 c 8.9526,0 6.90231,11.96778 -3.09375,18.0625 -10.07569,6.14327 -9.63793,6.09093 -16.90625,1 -4.76583,-3.33811 -5.25882,-4.77674 -2.6875,-7.875 4.37121,-5.26698 16.3636,-11.1875 22.6875,-11.1875 z m 71.03125,7.71875 c 12.43778,0 15.73078,5.24514 6.4375,10.21875 -7.01154,3.75247 -14.44982,3.2969 -18.09375,-1.09375 -4.88876,-5.89061 -0.75023,-9.125 11.65625,-9.125 z m -119.03125,0.5 c 1.14316,-0.0455 2.1846,0.0814 3.03125,0.40625 8.02811,3.08067 7.44144,9.51383 -1.53125,17.1875 -6.51746,5.5739 -11.39353,7.45295 -19.46875,7.53125 -5.93016,0.0575 -11.41578,-0.90758 -12.1875,-2.15625 -3.7882,-6.12943 19.10569,-22.52851 30.15625,-22.96875 z m 147,12.3125 c 2.7718,-0.16361 6.06182,0.60955 9,2.46875 3.06109,1.93698 3.13289,3.04555 0.34375,6.40625 -5.45938,6.57815 -15.59375,4.06017 -15.59375,-3.875 0,-3.01255 2.68625,-4.78964 6.25,-5 z M 375.25,586.90625 c 4.27643,-0.0413 5.76053,2.55054 2.09375,6.96875 -1.65474,1.99384 -2.71422,6.37769 -2.34375,9.75 0.56663,5.15769 -0.53893,6.20453 -7.03125,6.625 -4.24495,0.27492 -9.44003,-0.10298 -11.5625,-0.84375 -2.12247,-0.74077 -5.47616,-1.84386 -7.4375,-2.46875 -5.06147,-1.61259 3.30156,-10.43999 16.09375,-16.96875 4.04813,-2.06605 7.62164,-3.03774 10.1875,-3.0625 z m 31.59375,1 c 1.62903,-0.005 2.875,4.43005 2.875,10.28125 0,7.79686 -1.01092,10.2655 -4.15625,10.1875 -4.43198,-0.10996 -18.3125,-6.95651 -18.3125,-9.03125 0,-1.89316 16.33569,-11.4266 19.59375,-11.4375 z m -76.40625,5.125 c 4.97109,0 5.41909,0.98777 3.96875,8.71875 -1.01547,5.41294 -0.5076,9.37512 1.3125,10.5 2.1797,1.34715 2.14848,2.73577 -0.0937,5.4375 -3.55929,4.28868 -29.49152,5.07813 -32.03125,0.96875 -2.44955,-3.96345 20.23714,-25.625 26.84375,-25.625 z m 103.625,2.625 c 6.54272,-0.0373 6.81521,0.4631 5.40625,9.59375 -0.81881,5.30618 -1.78411,10.01426 -2.15625,10.46875 -0.37212,0.4545 -4.54749,-2.70682 -9.28125,-7.03125 -7.2051,-6.58207 -7.98053,-8.28444 -4.75,-10.4375 2.12247,-1.41456 6.97902,-2.57215 10.78125,-2.59375 z m -168.1875,6.375 c 0.60329,0.0191 1.04396,0.13771 1.28125,0.375 1.71808,1.71808 -11.00106,24.63769 -15.84375,28.5625 -3.86007,3.12844 -18.40625,4.58518 -18.40625,1.84375 0,-4.19807 7.70886,-18.51338 11.875,-22.0625 4.76812,-4.06195 16.87069,-8.85271 21.09375,-8.71875 z m 216.375,1.28125 c 5.27786,0 10.5,3.34785 10.5,6.71875 0,3.59424 -3.64953,4.29876 -9.65625,1.875 -3.69588,-1.49133 -4.39139,-8.59375 -0.84375,-8.59375 z m -25.40625,5.25 c 4.91007,-0.26339 11.57486,2.07859 12.3125,5.96875 0.49802,2.62651 -0.0561,5.71656 -1.25,6.875 -3.07357,2.98221 -16.3125,-4.57329 -16.3125,-9.3125 0,-2.27249 2.30396,-3.37322 5.25,-3.53125 z m -173.25,0.46875 c 4.45394,-0.0337 8.21732,3.55532 8.0625,9.21875 -0.10431,3.8158 0.64457,9.45472 1.65625,12.53125 1.49042,4.53236 0.35199,6.37151 -6,9.65625 -10.90968,5.64162 -23.54215,5.3798 -23.46875,-0.46875 0.0805,-6.41722 8.66169,-24.44478 13.5625,-28.5 2.00145,-1.65613 4.16298,-2.42218 6.1875,-2.4375 z M 506.4375,614.125 c 0.53033,0.0672 1.29572,0.57696 2.21875,1.5 1.67444,1.67439 2.44983,3.64393 1.71875,4.375 -1.71699,1.717 -4.78125,-1.31602 -4.78125,-4.75 0,-0.80603 0.31342,-1.19223 0.84375,-1.125 z m -119.125,2.0625 c 5.84108,0 6.11905,0.96883 2.40625,7.90625 -2.16611,4.04741 -1.43739,6.16353 3.78125,11 4.91343,4.55361 5.7548,6.68271 3.46875,8.96875 -1.65048,1.65049 -3.65926,2.96165 -4.4375,2.90625 -3.19224,-0.22718 -17.20262,-7.35013 -22,-11.1875 -5.06806,-4.05388 -4.99432,-4.25842 3.28125,-11.875 4.62101,-4.25304 10.69236,-7.71875 13.5,-7.71875 z m 29.75,3.1875 c 3.85175,-0.0748 7.17723,0.87999 7.875,3.25 1.42244,4.83149 -10.26732,11.01282 -16.46875,8.71875 -3.1756,-1.17473 -5.78125,-3.2767 -5.78125,-4.6875 0,-4.16106 7.95542,-7.15662 14.375,-7.28125 z m -63.3125,0.75 c 0.40933,-0.008 0.79554,0.0611 1.125,0.1875 4.65665,1.78692 5.33806,5.08476 1.53125,7.4375 -4.68804,2.89737 -2.67297,10.03327 4.5,15.90625 l 7.0625,5.78125 -12.875,-0.1875 C 337.3102,648.96533 333.25,647.50532 333.25,641.46875 c 0,-6.73219 14.36006,-21.2262 20.5,-21.34375 z m 130.34375,4.125 c 0.82793,-0.0399 1.7938,5.9e-4 2.875,0.125 5.89519,0.67832 7.20324,2.22043 7.875,9.1875 0.95238,9.87764 -1.71537,10.55955 -9.375,2.40625 -6.75966,-7.19535 -7.17053,-11.43965 -1.375,-11.71875 z m 24.25,9.9375 c 7.52186,0 12.6875,5.69393 12.6875,13.96875 0,10.67746 -6.00635,13.78081 -11.5,5.9375 -4.48973,-6.40999 -5.2947,-19.90625 -1.1875,-19.90625 z m -189.90625,0.21875 c 4.18532,-0.12901 4.09322,1.22141 2.84375,7.46875 -1.17147,5.85738 -0.43444,8.82774 2.75,11.15625 5.46289,3.99457 3.05838,11.01251 -4.46875,13.03125 -3.08583,0.82761 -10.10243,1.51195 -15.59375,1.53125 l -10,0.0312 1.5625,-9.5625 c 2.18962,-13.49309 9.54342,-22.40567 19.28125,-23.375 1.45748,-0.14508 2.65916,-0.25148 3.625,-0.28125 z m 157.39055,10.07694 c 5.14614,5.07999 4.92324,14.90977 -1.71161,21.59867 -6.63486,6.6889 -17.74765,7.56078 -24.543,0.20479 -6.79534,-7.35599 -9.17299,-14.87234 0.5752,-24.47161 9.74818,-9.59928 20.53327,-2.41184 25.67941,2.66815 z M 222.03125,644.5 c 0.87052,-0.0369 1.59306,0.12431 2.03125,0.5625 0.57666,0.57665 -0.10921,5.02562 -1.5,9.875 -1.39078,4.84937 -2.53125,13.12707 -2.53125,18.40625 0,8.07566 -1.21755,10.24694 -7.75,13.625 -7.06081,3.65125 -7.9158,3.62744 -9.34375,-0.0937 -2.30522,-6.00731 1.10647,-26.99857 5.46875,-33.65625 2.87236,-4.38376 9.85276,-8.55897 13.625,-8.71875 z m 23.8125,0.0937 c 2.84066,-0.0646 5.0625,1.07441 5.0625,3.4375 0,1.94921 1.71976,4.95069 3.8125,6.6875 2.76414,2.29404 3.11092,4.45623 1.28125,7.875 -1.38525,2.58836 -2.5,6.92132 -2.5,9.625 0,2.70368 -2.05503,6.70059 -4.53125,8.875 -7.34538,6.45011 -15.8585,8.09109 -17.65625,3.40625 -2.49855,-6.51111 1.58596,-31.92971 5.8125,-36.15625 2.41809,-2.4181 5.87809,-3.68539 8.71875,-3.75 z M 407.90625,650 c 0.93587,0.048 1.68776,0.84445 2.65625,2.375 1.28547,2.03148 2.3544,5.13753 2.375,6.90625 0.0217,1.76873 -2.83755,3.21875 -6.375,3.21875 -7.32096,0 -8.53387,-5.35734 -2.375,-10.46875 1.68035,-1.39457 2.78288,-2.0793 3.71875,-2.03125 z m -127.96875,4.78125 c 4.28129,0 4.82995,1.22529 3.5,7.875 -1.26107,6.30539 -0.29712,9.05268 4.90625,13.875 l 6.5,6.03125 -5.875,6.5625 c -7.32612,8.17868 -24.36837,11.9498 -26.6875,5.90625 -2.23992,-5.83715 3.5131,-30.24937 8.40625,-35.65625 2.29324,-2.534 6.46247,-4.59375 9.25,-4.59375 z M 380.625,655.25 c 1.7777,-0.0117 3.19592,0.73807 3.75,2.40625 0.64985,1.95649 4.45732,6.62359 8.46875,10.375 4.01143,3.75141 7.28125,7.49647 7.28125,8.34375 0,3.30585 -28.87431,-0.71806 -32.71875,-4.5625 -0.86553,-0.86553 -0.27733,-4.3918 1.28125,-7.8125 2.32818,-5.10981 8.02657,-8.72433 11.9375,-8.75 z m -34.4375,5.5625 c 3.70711,-0.1954 6.58359,2.49559 7.21875,8.125 0.47895,4.24494 2.05643,9.12972 3.5,10.875 1.92394,2.32603 0.79231,3.86417 -4.25,5.78125 -3.78336,1.43844 -10.85843,2.625 -15.71875,2.625 -10.81504,0 -11.69585,-5.33111 -2.96875,-18.28125 3.95677,-5.87145 8.51164,-8.9296 12.21875,-9.125 z m -156.75,14.53125 c 2.63952,0 3.05254,7.94949 0.71875,14.03125 -1.49887,3.90598 -11.28125,10.84249 -11.28125,8 0,-4.03752 8.62356,-22.03125 10.5625,-22.03125 z m 230.1875,1.0625 c 0.86017,10e-4 1.66648,0.37572 2.1875,1.21875 0.79712,1.28979 -0.29191,3.00115 -2.40625,3.8125 -2.11434,0.81135 -3.84375,0.41206 -3.84375,-0.875 0,-2.39761 2.17013,-4.15899 4.0625,-4.15625 z M 312,677.53125 c 1.92145,0.11846 3.21875,2.62096 3.21875,8.25 0,6.41063 1.41989,8.33545 7.71875,10.53125 9.35824,3.2623 7.88632,6.33912 -6.09375,12.6875 -5.8391,2.65155 -12.78043,4.87515 -15.4375,4.90625 -4.22093,0.0494 -4.63174,-1.30409 -3.15625,-10.53125 2.37389,-14.84549 9.52281,-26.10435 13.75,-25.84375 z m 234.21743,1.86301 c 4.6777,3.98625 2.71568,4.86233 1.92323,6.22687 -1.82378,3.14039 -3.86025,-0.76706 -3.86025,-2.34502 -1.6899,-4.45039 -0.0928,-5.55744 1.93702,-3.88185 z m -172.31118,6.69949 c 0.4688,-0.0208 0.94613,-0.008 1.4375,0.0625 4.36697,0.62487 5.3593,2.34919 4.90625,8.46875 -0.31339,4.23298 -2.53547,9.15824 -4.96875,10.9375 -5.50748,4.02717 -16.3125,4.23063 -16.3125,0.3125 0,-1.60171 2.44451,-6.84475 5.4375,-11.6875 3.40805,-5.51435 6.21841,-7.9481 9.5,-8.09375 z m 21.21875,5.3125 c 1.33539,0.0322 3.31493,0.85073 6.5625,2.09375 l 7.4375,2.84375 -6.0625,4.9375 c -9.11843,7.42488 -14.172,6.52893 -12,-2.125 1.43451,-5.71553 1.83684,-7.8036 4.0625,-7.75 z m 129.39286,1.96875 c 1.41499,0 4.78117,3.40319 4.78117,4.81817 0,1.41498 -3.36618,2.18183 -4.78117,2.18183 -1.41498,0 -4.12493,-1.39495 -4.06565,-2.80869 0.0893,-2.12927 2.65067,-4.19131 4.06565,-4.19131 z m -304.48661,2.5625 c 6.51881,0 9.35911,4.79121 11.1875,18.8125 1.4496,11.11647 0.93562,13.0105 -5.15625,18.65625 -11.24865,10.4249 -13.56693,8.25925 -15.625,-14.4375 -1.4729,-16.24338 1.33625,-23.03125 9.59375,-23.03125 z m 26.15625,0.625 c 2.07444,-0.0979 4.7047,2.07515 6.03125,5.09375 2.27252,5.17117 4.28114,5.82609 17.34375,5.5625 8.13348,-0.16413 14.78125,0.46805 14.78125,1.40625 0,2.24604 -17.56249,18.81975 -25.65625,24.21875 -3.49855,2.33373 -7.27109,4.25 -8.40625,4.25 -7.03816,0 -11.3809,-39.08597 -4.5,-40.5 0.13282,-0.0273 0.26795,-0.0247 0.40625,-0.0312 z M 346,701.09375 c 0.83583,0 1.50805,5.28298 1.46875,11.75 -0.0472,7.75424 -1.39256,12.47178 -3.9375,13.84375 -2.12247,1.14421 -6.63832,2.92834 -10.03125,3.96875 -5.85076,1.79407 -6.09288,1.43313 -4.46875,-6.6875 1.51223,-7.56119 12.87838,-22.875 16.96875,-22.875 z m -151.40625,0.0312 c 0.37187,-0.0314 0.6791,0.0541 0.90625,0.28125 0.66765,0.66765 1.98696,7.84991 2.9375,15.9375 1.42736,12.14459 0.93826,15.59889 -2.875,19.8125 -2.5394,2.80601 -5.55833,5.09375 -6.6875,5.09375 -2.36427,0 -7.38495,-16.71105 -7.40625,-24.625 -0.0127,-4.71304 9.53022,-16.19631 13.125,-16.5 z M 314.5,721.6875 c 2.32689,-0.10262 2.78218,2.69961 4.1875,13.4375 1.51188,11.55207 1.18692,12.3934 -5.96875,16.09375 -7.52595,3.89181 -7.55461,3.87088 -9.125,-4.5 -1.83891,-9.80225 2.10791,-21.9552 7.84375,-24.15625 1.30298,-0.5 2.28687,-0.84079 3.0625,-0.875 z m -25.53125,3.1875 c 0.60631,-0.0339 1.15986,0.0283 1.65625,0.21875 4.0453,1.55233 4.00395,4.68575 -0.25,20.375 -0.6718,2.47772 -3.40824,5.68776 -6.09375,7.125 -4.09632,2.19228 -5.57578,1.30301 -9.09375,-5.5 -4.12593,-7.97867 -4.04698,-8.23426 3.5625,-15.84375 4.00628,-4.00628 7.59142,-6.22811 10.21875,-6.375 z M 234.375,740.8125 c 1.88582,0.005 4.27767,1.28606 6.71875,3.90625 3.33147,3.57592 6.72717,4.96424 9.4375,3.84375 11.13939,-4.60517 13.25,-4.37491 13.25,1.375 0,3.13649 -3.93907,9.62657 -8.75,14.4375 -4.81094,4.81094 -10.09309,8.75 -11.71875,8.75 -3.28031,0 -12.8488,-19.39193 -12.9375,-26.21875 -0.0519,-3.99817 1.57537,-6.10046 4,-6.09375 z m -30.03125,6.5625 c 1.49859,0.0449 3.04699,0.8495 4.125,2.59375 0.87451,1.41498 3.84821,2.5625 6.625,2.5625 7.99608,0 11.79401,11.15552 6.53125,19.1875 -2.3558,3.59542 -5.76446,6.53125 -7.59375,6.53125 -4.17236,0 -14.5625,-18.11993 -14.5625,-25.40625 0,-3.47886 2.37735,-5.54361 4.875,-5.46875 z m -20.96875,7.75 c 3.43037,0 6.75633,4.56144 10.875,14.9375 2.91168,7.33533 2.83733,9.10017 -0.59375,12.53125 -3.60496,3.60496 -4.24147,3.50383 -6.71875,-1.125 -4.09519,-7.65193 -6.62688,-26.34375 -3.5625,-26.34375 z m 371.21875,5.65625 c 1.62034,0.0468 2.46875,2.36711 2.46875,6.8125 0,8.58518 -4.31857,13.21689 -6.65625,7.125 -2.10402,-5.48302 -0.35084,-12.55114 3.4375,-13.8125 0.26248,-0.0874 0.51852,-0.13168 0.75,-0.125 z m -280.40625,4.125 c 0.70704,-0.004 1.41547,0.0299 2.15625,0.125 9.25085,1.18719 9.319,1.48702 2.9375,11.8125 -5.93047,9.5957 -9.8669,11.19561 -15,6.0625 -7.20642,-7.20642 -0.69938,-17.94084 9.90625,-18 z m 25.5625,2.28125 c 3.46227,-0.0761 3.87709,8.18454 -1.125,20.15625 -4.32133,10.34238 -8.38576,11.48581 -10.53125,2.9375 -0.94931,-3.78238 0.55128,-9.48643 4.0625,-15.4375 3.12503,-5.29653 5.78018,-7.6164 7.59375,-7.65625 z m -68.90625,13.375 c 1.35262,0.0239 2.74527,0.62027 4,1.875 2.55181,2.55181 6.31737,3.27089 11.25,2.1875 6.56719,-1.4424 7.40625,-0.92375 7.40625,4.625 0,3.43873 -1.29034,9.88764 -2.84375,14.34375 -1.5534,4.45608 -3.7712,8.125 -4.9375,8.125 -2.96034,0 -20.53125,-20.88948 -20.53125,-24.40625 0,-4.15801 2.68048,-6.80259 5.65625,-6.75 z m -26,9 c 4.8911,0.0526 12.38441,4.44892 17.4375,12.625 3.00911,4.86882 5.46875,12.47458 5.46875,16.90625 0,4.43169 -0.99967,8.0625 -2.25,8.0625 -3.2347,0 -20.57675,-19.63695 -24.03125,-27.21875 -3.22622,-7.08078 -0.94068,-10.42144 3.375,-10.375 z m 338.5,5 c 3.99783,-0.13887 6,3.38954 6,10.5625 0,7.38543 -1.3783,9.72336 -7.59375,12.9375 -12.21993,6.31918 -15.5625,4.92249 -15.5625,-6.59375 0,-4.98665 2.3385,-8.78966 7.8125,-12.6875 3.82259,-2.72192 6.94505,-4.13543 9.34375,-4.21875 z m -268.4375,3.375 c 4.03487,-0.15956 5.51156,1.18227 7.09375,5.34375 1.29356,3.40231 2.34375,7.84464 2.34375,9.875 0,5.5562 -8.03848,4.4331 -16.46875,-2.3125 -8.66676,-6.93482 -7.46556,-10.90723 3.8125,-12.5625 1.23734,-0.1816 2.28763,-0.30693 3.21875,-0.34375 z m -84.625,6 c 2.90354,-0.49919 14.3125,17.39793 14.3125,23.4375 0,2.70298 -1.02209,4.90625 -2.28125,4.90625 -3.1593,0 -13.58595,-22.76605 -12.625,-27.5625 0.096,-0.47907 0.29338,-0.72961 0.59375,-0.78125 z M 258.5,817.84375 c 1.89728,-0.065 3.58735,1.35269 6.9375,4.5 5.00214,4.69925 6.13679,8.02748 5.53125,16.09375 -0.42001,5.59478 -1.92877,10.50108 -3.34375,10.90625 -3.89739,1.11599 -17.26328,-5.47544 -23.78125,-11.71875 -6.92778,-6.63585 -8.04396,-17.04967 -1.5625,-14.5625 2.32185,0.89098 7.05896,-0.22486 10.53125,-2.5 2.60777,-1.70866 4.21183,-2.66819 5.6875,-2.71875 z m 37.65625,8.5 c 1.8278,0.1323 2.83869,1.94135 4.9375,6 2.10678,4.07406 3.84375,8.03475 3.84375,8.8125 0,2.41548 -13.91336,1.41873 -18.65625,-1.34375 -6.43596,-3.74859 -5.59277,-6.58863 3.25,-11 3.3013,-1.6469 5.20338,-2.57165 6.625,-2.46875 z m 247.4375,3.40625 c 2.31105,-0.0279 1.79262,2.80279 -1.8125,9.625 -9.20319,17.41574 -11.03473,18.55177 -9.25,5.84375 1.58256,-11.26865 4.52485,-15.39005 11.0625,-15.46875 z m -26.53125,2.53125 c 4.64065,0 5.40446,11.36706 1.46875,21.71875 -2.04405,5.37631 -4.2028,6.59375 -11.65625,6.59375 -10.14838,0 -13.05682,-3.93778 -10.5,-14.125 1.58935,-6.33253 13.04236,-14.1875 20.6875,-14.1875 z m -301.03125,4.15625 c 1.61534,-0.061 4.08509,0.85151 8.53125,2.6875 13.57241,5.60461 18.625,10.82978 18.625,19.28125 0,8.77762 -0.54456,8.82749 -15.9375,0.8125 -13.77851,-7.17434 -18.19283,-13.10648 -14.6875,-19.65625 1.09462,-2.04531 1.85341,-3.06398 3.46875,-3.125 z m 270.4375,1 c 2.34377,0 1.00655,6.86851 -2.09375,10.8125 -5.65688,7.19626 -17.34375,8.46434 -17.34375,1.875 0,-1.72813 16.78961,-12.6875 19.4375,-12.6875 z m -165.90625,10.375 c 4.61548,-0.0932 15.25,10.27675 15.25,14.875 0,1.93938 -4.61849,3.0625 -12.6875,3.0625 -10.58043,0 -12.96341,-0.89624 -14.375,-5.34375 -1.8266,-5.75512 4.4387,-12.44479 11.8125,-12.59375 z m -34.21875,4.28125 c 7.29781,-0.15911 13.4375,7.77224 13.4375,20.1875 0,5.6282 -1.07977,6.3125 -10.09375,6.3125 -17.19782,0 -23.48601,-11.6097 -12.125,-22.375 2.90898,-2.75645 5.92559,-4.06274 8.78125,-4.125 z M 348.4375,855.75 c 0.99558,0.0154 2.50855,0.34679 4.625,0.875 8.01756,2.00099 23.90625,13.22137 23.90625,16.875 0,1.29319 -2.02378,3.37773 -4.5,4.65625 -9.5329,4.92202 -22.94538,5.83838 -26.3125,1.78125 -2.57609,-3.10401 -2.61505,-4.71204 -0.0937,-7.75 1.8864,-2.273 2.51043,-6.56787 1.5,-10.59375 -1.09951,-4.38078 -1.31527,-5.87754 0.875,-5.84375 z m 99.84375,0.0937 c 8.25244,0.26764 8.18167,4.25689 -0.0937,12.03125 -7.82564,7.3518 -15.61412,7.0719 -20.71875,-0.71875 -4.96267,-7.57398 -3.33497,-8.8828 13.75,-10.90625 2.78919,-0.33034 5.15809,-0.46801 7.0625,-0.40625 z M 256.125,862.4375 c 2.52245,0.34851 8.80405,14.121 11.40625,25.96875 1.62609,7.40354 1.22308,8.18665 -4.1875,8.09375 -6.58328,-0.11315 -20.33111,-6.70482 -23.3125,-11.1875 -3.69653,-5.55794 -1.88836,-9.28125 4.53125,-9.28125 3.93393,0 7.0914,-1.78038 7.96875,-4.5 0.79882,-2.47622 2.05577,-6.25253 2.78125,-8.375 0.18544,-0.54253 0.45215,-0.76854 0.8125,-0.71875 z M 385,862.75 l 10.78125,1.8125 c 14.03758,2.35527 22.34375,5.58533 22.34375,8.65625 0,1.35368 -3.35913,4.85492 -7.46875,7.78125 -8.35225,5.94732 -17.97677,6.99111 -19.21875,2.09375 -0.44855,-1.76872 -2.07663,-7.07189 -3.625,-11.78125 z m 89.84375,3 c 5.60479,0 10.1875,0.98482 10.1875,2.1875 0,1.20269 -3.49618,6.97153 -7.75,12.84375 -5.50443,7.59862 -9.55904,10.6875 -14.125,10.6875 -3.8232,0 -6.4375,-1.48197 -6.4375,-3.65625 0,-2.00676 -0.60155,-5.22212 -1.34375,-7.15625 -2.50765,-6.53487 8.43439,-14.90625 19.46875,-14.90625 z M 509,871.84375 c 7.44954,-0.17187 6.03028,3.6127 -3.78125,13.6875 -14.22236,14.60402 -18.80274,17.15523 -22.5625,12.625 -2.22131,-2.67653 -1.30087,-5.90703 3.875,-13.8125 5.19586,-7.93601 8.83915,-10.63949 15.875,-11.78125 2.67102,-0.43345 4.87462,-0.67909 6.59375,-0.71875 z m -188.15625,6.125 c 5.42528,-0.0951 11.22006,3.11251 17.5625,9.65625 9.5233,9.82555 8.66966,12.90142 -4.625,16.59375 -15.35207,4.26372 -20.32449,3.303 -26.28125,-5.0625 l -5.53125,-7.75 6.8125,-7.21875 c 3.84106,-4.0696 7.84284,-6.14476 12.0625,-6.21875 z m 112.4375,5.75 c 4.72501,-0.0271 8.62603,1.17795 9.625,3.78125 0.7952,2.07223 -0.86045,6.99606 -3.6875,10.9375 -7.67892,10.70577 -18.69914,16.41524 -25,12.96875 -10.47194,-5.72797 -10.14301,-12.1946 1.09375,-21.78125 4.43712,-3.78553 11.89374,-5.87142 17.96875,-5.90625 z m -150.40625,5.1875 c 4.8095,0 19.5,17.85813 19.5,23.71875 0,3.66297 -2.15298,4.54205 -10.9375,4.46875 -6.01367,-0.0501 -13.73508,-1.63577 -17.15625,-3.53125 l -6.21875,-3.4375 5.5625,-3 c 3.79583,-2.03148 5.59375,-5.40241 5.59375,-10.59375 0,-4.892 1.30136,-7.625 3.65625,-7.625 z m 92.40625,0.53125 c 4.56245,-0.16185 7.64725,0.99059 11.46875,3.84375 10.23586,7.64215 9.57806,10.2732 -4.375,17.34375 -15.07096,7.63704 -18.30543,8.00705 -23.71875,2.59375 -3.22776,-3.22778 -3.46754,-5.66508 -1.25,-12.75 2.33819,-7.47035 4.21075,-8.99481 12.75,-10.4375 1.92731,-0.32562 3.60418,-0.5398 5.125,-0.59375 z M 455.875,902.375 c 1.59112,-0.009 3.33335,0.2492 5.5,0.65625 l 9.5,1.78125 -7.71875,6.25 c -4.24494,3.43458 -13.72147,9.11656 -21.0625,12.625 -15.35485,7.3384 -16.252,7.50381 -16.25,3.15625 6.9e-4,-1.76873 5.85051,-8.24923 13,-14.40625 8.88403,-7.65076 12.25789,-10.03638 17.03125,-10.0625 z m -116.75,12.5625 c 5.25015,0.0175 7.46481,1.63688 12.3125,6.28125 5.52254,5.29092 6.66827,7.78551 4.3125,9.28125 -5.30523,3.36845 -45.65625,1.51658 -45.65625,-2.09375 0,-6.78417 6.51672,-11.01066 19.4375,-12.625 4.18012,-0.52227 7.20732,-0.85171 9.59375,-0.84375 z m 58.71875,1.03125 c 2.27571,-0.0277 4.26386,0.8901 7.4375,2.53125 4.23272,2.18885 7.71875,4.99759 7.71875,6.25 0,1.25244 -4.92383,4.6355 -10.9375,7.53125 -6.01367,2.89572 -16.06361,6.07611 -22.3125,7.0625 -10.11276,1.59633 -11.15061,1.31944 -9.625,-2.65625 0.94271,-2.45666 1.71875,-5.53709 1.71875,-6.8125 0,-1.27541 5.78788,-5.25246 12.875,-8.84375 6.83204,-3.46207 10.19909,-5.02694 13.125,-5.0625 z"
         transform="translate(5.0507606,-275.77165)"
         id="path3036"
         inkscape:connector-curvature="0"
         sodipodi:nodetypes="sssssssssssssssssssssssccssccssssssssssssssssssssssssssssssssssssssssssssssssscsscssssscscsscssssssssssssssssssssssssssssssscssssssssssscccssssssssssssssscccsssszzzzzssssssssscsssssssccsssscscsssssssssssssssssssssssssssssssssssscscccssssccssssssssssssscsssssccsssssscssssscssssssssssssssssssssssssssssssssccsscsssssssssssssssssssssssssssssssssssssssssssssssssssssscscsscsssssssssssssssssssssssssssssssssssssssscssscsccssscsssssssssssssscsscccssssssscsccccsssssssscscccscsssssssssssssscsssssssc" />
      <path
         style="fill:#525252"
         d="m 376.8125,544.96875 c -28.75813,0.28649 -56.80938,3.97721 -69.34375,10.53125 -6.99861,3.65948 -14.32285,6.65625 -16.28125,6.65625 -7.17099,0 -39.52945,18.13728 -49.40625,27.6875 -25.72522,24.87462 -52.625,54.71344 -52.625,58.40625 0,2.23789 -4.03608,9.97124 -9,17.1875 -4.96391,7.21627 -10.66562,19.05932 -12.65625,26.3125 -4.88031,17.78225 -7.39494,58.59908 -4.34375,70.46875 1.35991,5.29029 3.74219,15.8274 5.28125,23.4375 4.1117,20.33093 37.16716,85.00014 52.9375,103.5625 17.54656,20.65304 70.52062,49.83039 101.8125,56.0625 7.65645,1.52486 17.95382,3.81968 22.90625,5.09375 33.3389,8.5769 104.04034,-8.68674 142.09375,-34.6875 22.2666,-15.21408 52.57826,-47.44293 62.96875,-66.9375 16.31828,-30.61623 23.40398,-75.56456 16.0625,-102 -5.0713,-18.26083 -10.37534,-7.86654 -28.84375,26.0625 -6.12195,11.24686 -28.86334,37.82863 -36.53125,45.375 -14.77163,14.53752 -46.44686,24.62689 -61.125,28.96875 -34.70999,10.26736 -40.06845,8.03156 -59.3125,7.5625 -19.25872,-0.46941 -43.0625,-9.19209 -43.0625,-14.0625 0,-2.98178 13.95239,-13.05601 21.53125,-15.9375 4.53787,-1.72528 -0.26015,-5.01516 -1.09375,-7.1875 -0.39664,-3.93796 -2.4661,-16.21688 -8.625,-23.4375 -6.15891,-7.22063 -7.19719,-10.02834 -9.8125,-13.53125 -4.22544,-5.65952 -4.39027,-7.48741 -1.4375,-16.3125 4.27934,-12.78983 14.16885,-20.37322 23.5,-18.03125 3.80031,0.95381 12.30229,7.39039 18.90625,14.28125 14.25828,14.87773 24.84954,19.17416 38.15625,15.5 12.37718,-3.4175 25.38334,-20.31215 25.75,-28.6875 0.33679,-7.69405 -0.14715,-17.31761 -11.375,-21.84375 -9.26069,-3.73314 -19.09966,-15.32694 -16.40625,-20.09375 10.63895,-18.82905 28.08316,-22.13887 59.59375,-5.65625 19.0362,9.95749 23.53691,12.09375 36.75,12.09375 8.44923,0 18.47285,0.45644 22.4375,-1.59375 9.49406,-4.90957 23.40625,-20.9184 23.40625,-26.9375 0,-2.62195 -3.98398,-10.57718 -8.875,-17.6875 -4.89105,-7.11032 -14.13865,-23.90378 -20.53125,-37.3125 C 519.95407,606.75061 516.50474,602.12887 500.625,588.8125 475.71342,567.92222 454.29422,554.86223 438.21875,550.75 c -16.22506,-4.15049 -39.03881,-6.00407 -61.40625,-5.78125 z m 3.21875,6.9375 c 5.88407,-0.0533 8.73427,5.15659 4.34375,7.9375 -4.94838,3.13425 -11.89627,2.87266 -14,-0.53125 -2.02915,-3.28324 3.25406,-7.34825 9.65625,-7.40625 z m 36.75,5.375 c 4.85899,-0.19893 12.76307,1.71953 13.59375,4.25 0.68246,2.07894 -1.58664,3.1875 -6.4375,3.1875 C 416.22925,564.71875 413,563.04462 413,559 c 0,-1.09544 1.57262,-1.62833 3.78125,-1.71875 z M 336.25,557.3125 c 9.06773,-0.313 9.54999,2.76313 0.9375,8.40625 -8.01491,5.25157 -16.52311,5.33919 -18.5,0.1875 -2.1286,-5.54704 -0.24307,-6.74323 13.125,-8.25 1.64357,-0.18525 3.14211,-0.29904 4.4375,-0.34375 z m 63.125,2.75 c 2.86354,-0.10864 5.14677,0.33427 6.25,1.4375 1.5637,1.5637 1.72081,5.77508 0.375,10.96875 -3.34284,12.90042 -18.40295,15.45821 -28.09375,4.75 -4.63523,-5.12187 -4.58908,-5.35961 1.21875,-10.0625 4.93622,-3.9971 13.95022,-6.85474 20.25,-7.09375 z M 359,561.4375 c 2.50255,-0.008 4.65744,0.50063 6.15625,1.65625 6.01281,4.63602 2.11696,16.79507 -7.1875,22.46875 -4.40753,2.68763 -9.77613,4.87 -11.9375,4.875 -5.40904,0.0132 -15.375,-7.27121 -15.375,-11.25 0,-8.03856 17.49935,-17.71348 28.34375,-17.75 z m 92.125,4.15625 c 0.9763,0.0837 2.57715,1.34438 5.59375,3.8125 4.53203,3.708 5.629,6.08297 3.71875,8.03125 -3.82812,3.90434 -12.25157,-2.72016 -11.0625,-8.6875 0.43287,-2.17234 0.7737,-3.23996 1.75,-3.15625 z m -21.5625,2.9375 c 7.29464,-0.16756 14.54665,1.59331 16.09375,5.625 0.76612,1.9965 -0.64285,5.91024 -3.15625,8.6875 -8.47992,9.37024 -29.5,4.53655 -29.5,-6.78125 0,-4.67145 8.29524,-7.34134 16.5625,-7.53125 z m -119.5,1.34375 c 15.29168,0 17.39846,13.94838 3.6875,24.40625 -16.78249,12.80063 -40.35957,10.4374 -35.90625,-3.59375 2.30686,-7.26828 23.27641,-20.8125 32.21875,-20.8125 z m -32.5,7.71875 c 2.98286,0 1.74561,7.0364 -1.75,9.9375 -1.87725,1.55798 -7.67735,4.60953 -12.875,6.78125 -7.24461,3.02699 -9.4415,3.17925 -9.4375,0.6875 0.004,-2.92752 20.01821,-17.40625 24.0625,-17.40625 z M 457.625,582.75 c 10.54868,0 16.82296,6.07999 12.84375,12.4375 -3.97757,6.35486 -14.49393,6.6746 -19.96875,0.625 -6.63502,-7.33163 -3.50367,-13.0625 7.125,-13.0625 z m -82.5625,0.46875 c 6.13647,0.0184 7.21958,4.49725 5.21875,16.5 l -2.125,12.59375 -11.53125,0.53125 c -12.56678,0.57919 -23.09375,-3.25982 -23.09375,-8.4375 0,-4.83359 17.75771,-18.62485 26.4375,-20.53125 1.97896,-0.43465 3.67764,-0.66049 5.09375,-0.65625 z m 30.5625,2.5 c 0.5395,-0.0169 1.03903,0.006 1.53125,0.0625 6.51207,0.75309 7.06173,1.70284 7.0625,12.40625 8e-4,11.0017 -0.387,11.58213 -7.6875,12.15625 -9.01152,0.70868 -21.84375,-5.61393 -21.84375,-10.78125 0,-5.37897 12.84497,-13.59055 20.9375,-13.84375 z m 74,0.0937 c 3.08391,-0.10116 7.96875,3.24842 7.96875,6.21875 0,1.97109 -1.00827,3.5625 -2.25,3.5625 -2.98847,0 -9.11103,-7.48271 -7.46875,-9.125 0.43683,-0.43683 1.03833,-0.6329 1.75,-0.65625 z m -149.5625,4.15625 c 8.51545,-0.33875 14.56807,6.08818 8.125,12.53125 -1.99676,1.99676 -1.83307,4.378 0.625,8.40625 3.04852,4.99586 2.7464,6.16579 -2.65625,10.59375 -9.11849,7.4734 -36.375,5.71448 -36.375,-2.34375 0,-5.84757 14.19621,-22.7869 22.75,-27.15625 2.55038,-1.30275 5.14692,-1.9364 7.53125,-2.03125 z m 103.75,1.1875 c 1.64075,-0.0883 3.20019,0.0364 4.5625,0.46875 4.30016,1.36482 5.17555,3.84631 5.09375,14.40625 -0.082,10.58474 -0.90589,12.71875 -4.8125,12.71875 -6.45715,0 -20.53125,-12.26885 -20.53125,-17.90625 0,-4.55508 8.57758,-9.30493 15.6875,-9.6875 z m -169.03125,7.4375 c 2.75126,-0.042 4.77943,0.83436 5.5625,2.875 2.05782,5.3626 -13.59247,31.58533 -20.8125,34.875 -17.56937,8.00514 -24.57552,-1.81576 -13.78125,-19.28125 6.14764,-9.94709 20.77747,-18.34277 29.03125,-18.46875 z m 216.15625,2.21875 c 4.46812,-0.13135 10.18773,1.25022 12.90625,3.96875 5.00188,5.00188 5.09473,7.33297 0.375,11.25 -3.1595,2.62215 -2.9806,3.76941 1.28125,8.03125 2.73528,2.73528 4.96875,6.16678 4.96875,7.59375 0,1.55662 2.00955,1.32459 5.03125,-0.5625 4.2691,-2.6661 6.02458,-2.20451 11.53125,2.96875 8.80913,8.27573 10.38969,14.61467 5.46875,22.125 -5.52244,8.42828 -11.05891,7.96074 -16.375,-1.40625 -2.68375,-4.72879 -5.79697,-7.18616 -8.03125,-6.34375 -5.06486,1.90967 -20.78125,-13.97624 -20.78125,-21 0,-3.63864 2.04355,-6.41437 5.5625,-7.53125 5.36234,-1.70194 5.39878,-1.84558 0.65625,-4.4375 -5.75794,-3.14688 -8.6949,-7.00523 -8.75,-11.5 -0.0248,-2.02381 2.68105,-3.05409 6.15625,-3.15625 z m -21.71875,3.84375 c 2.12092,0.0397 4.22622,0.38372 6.09375,1.09375 6.09783,2.31839 7.06118,3.96322 6.375,11.0625 -0.50284,5.20215 -2.37501,8.63433 -4.96875,9.125 -4.38021,0.82864 -20.28125,-11.08078 -20.28125,-15.1875 0,-3.61805 6.4185,-6.21294 12.78125,-6.09375 z M 285.75,607.1875 c 9.99302,0 10.1825,0.1452 9.5,8.65625 -0.38271,4.77255 0.55161,10.20434 2.09375,12.0625 4.40206,5.30416 -1.15438,12.83533 -12.96875,17.5625 -12.62938,5.05328 -19.05313,5.27336 -22.78125,0.78125 -3.63396,-4.37865 0.14584,-18.58109 8.09375,-30.375 5.01058,-7.4352 7.35718,-8.6875 16.0625,-8.6875 z m 219.71875,1.71875 c 1.46012,0.0221 3.05013,1.38378 5.46875,4.34375 2.72953,3.34046 4.96875,7.69053 4.96875,9.65625 0,5.87893 -7.29516,4.03742 -11.90625,-3 -3.37915,-5.15726 -3.62161,-7.23331 -1.15625,-9.65625 0.91752,-0.90173 1.74893,-1.357 2.625,-1.34375 z m -113.40625,2.375 c 5.14801,-0.0156 6.76851,4.13688 2.59375,11.9375 -3.17718,5.93662 -2.95848,6.86469 2.28125,10.34375 6.68416,4.43811 7.58811,12.23572 1.6875,14.5 -6.60574,2.53486 -12.0284,1.49131 -22.9375,-4.4375 -14.41305,-7.83312 -14.6496,-14.42427 -0.90625,-24.53125 7.14944,-5.25776 13.27724,-7.80039 17.28125,-7.8125 z m 25.96875,4.40625 c 3.55884,0.11472 6.79843,1.1735 9.1875,3.15625 3.50656,2.91017 3.16786,4.12328 -3.03125,10.59375 -7.33714,7.65833 -11.23245,8.55077 -20.84375,4.6875 -7.62862,-3.06633 -7.33748,-9.08558 0.6875,-14.34375 4.35337,-2.85244 9.42435,-4.24124 14,-4.09375 z m -63.71875,0.96875 c 2.23044,0.001 4.26969,0.72554 6.03125,2.1875 3.45509,2.86747 3.44067,3.89857 -0.25,9.53125 -4.01318,6.12489 -3.87508,6.59568 4.4375,13.59375 l 8.59375,7.21875 -7.25,2.78125 c -9.07779,3.50242 -16.03947,3.29006 -27.5,-0.84375 -11.66789,-4.2086 -12.19211,-8.37927 -2.6875,-21.5 6.04986,-8.35159 12.925,-12.97153 18.625,-12.96875 z m -129.59375,7.25 c 4.72216,0 3.62706,3.70603 -2.90625,9.84375 -6.01004,5.64615 -12.0625,7.38504 -12.0625,3.46875 0,-3.14382 11.43599,-13.3125 14.96875,-13.3125 z m 91.90625,5.4375 c 0.56218,0.0115 1.12674,0.0768 1.6875,0.15625 4.76266,0.67509 5.90625,2.42335 5.90625,8.90625 0,4.45571 2.3014,10.62493 5.125,13.75 l 5.125,5.6875 -6.875,5.90625 c -3.78295,3.25396 -8.38629,6.43553 -10.25,7.0625 -2.796,0.94055 -2.81387,1.84695 -0.0312,5.21875 1.85486,2.2476 3.16004,5.62629 2.90625,7.5 -1.00965,7.45421 0.38831,9.84375 5.78125,9.84375 5.434,0 5.47993,-0.12666 0.78125,-3.5625 -4.75532,-3.47717 -4.77951,-3.84121 -0.15625,-14.09375 6.51777,-14.45385 12.09592,-18.89705 22.4375,-17.90625 7.7102,0.73869 8.56487,1.5759 8.09375,8.1875 -0.28908,4.05693 1.24737,9.15362 3.40625,11.3125 3.51839,3.51851 3.50884,4.3349 -0.0312,7.875 -2.17211,2.17211 -8.90366,4.61579 -14.96875,5.4375 -9.28042,1.25732 -10.92501,2.34262 -10.3125,6.8125 0.55344,4.03881 -2.31592,6.95078 -11.9375,12.1875 -13.96261,7.5994 -27.30152,9.017 -29.5625,3.125 -2.08843,-5.44237 5.49367,-29.11868 11.125,-34.75 5.70757,-5.70758 4.26732,-7.78125 -5.34375,-7.78125 -9.70303,0 -11.31848,-6.82205 -5.09375,-21.34375 5.26989,-12.29416 13.75473,-19.70397 22.1875,-19.53125 z m 128.71875,2.28125 c 17.03217,0.0108 28.27189,5.26873 36.1875,16.90625 13.86807,20.38888 28.15877,27.5984 41.28125,20.8125 6.92921,-3.58323 8.93739,-8.26644 17,-1.0625 4.67304,4.17535 10.23098,14.23067 9.78125,15.3125 -0.44973,1.08182 -1.59209,8.46839 -8.28125,12.53125 -11.05081,6.71204 -18.46843,7.97155 -25.375,7.03125 -9.11123,-1.57031 -24.32295,-5.26118 -33.375,-9.03125 -8.71978,-4.81827 -22.90901,-12.52732 -31.09375,-14.3125 -11.85257,-2.58518 -17.1486,-4.6396 -24.25,-12.5 -16.99933,-18.81624 -7.83427,-35.704 18.125,-35.6875 z M 249.75,639.34375 c 0.35657,0 3.09277,4.12293 6.0625,9.15625 4.77849,8.09894 5.06197,10.45052 2.5,20.625 -1.6973,6.74061 -5.5583,13.61612 -9.34375,16.59375 -6.37288,5.01291 -16.16329,6.71171 -19.5,3.375 -2.71142,-2.71142 -1.97774,-27.59125 1.0625,-36.3125 1.84334,-5.28783 5.36842,-8.84416 10.65625,-10.6875 4.35345,-1.51762 8.20592,-2.75 8.5625,-2.75 z M 222.78125,640 c 0.89179,0.002 1.69499,0.20473 2.375,0.625 3.71666,2.29702 0.46978,34.3967 -4.25,41.9375 -2.03301,3.24814 -6.66363,7.2267 -10.28125,8.875 -5.62173,2.56143 -7.15901,2.27946 -10.46875,-2.03125 -3.08885,-4.02302 -4.13346,-4.31127 -5.21875,-1.375 -0.74833,2.02462 -4.27164,6.3747 -7.8125,9.65625 -9.04047,8.37843 -11.73148,7.54482 -10,-3.125 2.13366,-13.14823 11.50681,-27.43247 16.90625,-25.71875 3.2813,1.04144 5.33508,-1.31075 8.34375,-9.5625 3.55757,-9.75721 14.1637,-19.2979 20.40625,-19.28125 z m 243.0625,2.53125 c -1.13293,0.004 -1.83807,1.89327 -2.78125,5.5 -1.06999,4.09154 -4.83736,4.50154 -8.90625,3.4375 -6.69391,-1.7505 -9.20919,3.41466 -5.25,10.8125 4.17659,7.80403 18.2222,11.20154 25.25,0.875 4.00761,-5.88872 0.87258,-8.85448 -3.03125,-14.8125 -2.5801,-3.93773 -4.14832,-5.81645 -5.28125,-5.8125 z m -54.5625,2.8125 c 0.64356,-0.0166 1.17695,0.0861 1.59375,0.34375 1.47721,0.91297 2.6875,6.23608 2.6875,11.8125 0,8.87592 -0.73745,10.125 -5.9375,10.125 -8.2251,0 -15.82834,-6.02236 -13.90625,-11.03125 1.85237,-4.82722 11.0576,-11.13363 15.5625,-11.25 z M 279.5,650.53125 c 4.94304,-0.022 8.60632,4.21133 7.84375,13.0625 -0.68138,7.9088 0.10398,9.81099 4.53125,10.96875 11.89654,3.11101 1.27592,21.48875 -15.25,26.40625 l -9,2.65625 9.625,-1.09375 c 5.28025,-0.60863 10.27028,0.0233 11.125,1.40625 2.22792,3.60485 -10.44486,19.35343 -22.8125,28.3125 -14.95041,10.83002 -19.94534,9.25873 -25.34375,-8 -3.80385,-12.16094 -4.45866,-13.00518 -4.59375,-6 -0.22936,11.89433 -2.42026,15.98566 -10.96875,20.40625 -9.90346,5.12128 -14.00281,3.35221 -16.3125,-7.15625 -1.86082,-8.46623 -1.87667,-8.48361 -4.21875,-2.15625 -1.29863,3.50836 -4.23272,8.40093 -6.5,10.90625 -6.90147,7.62603 -13.04203,5.70116 -16.03125,-5.0625 -4.31256,-15.5288 -3.33136,-24.91088 3.25,-31.09375 7.6786,-7.21366 14.18635,-7.10908 15.75,0.21875 0.67936,3.18371 1.71406,8.07628 2.3125,10.90625 0.76015,3.59466 1.19776,2.96707 1.40625,-2.09375 0.66592,-16.1642 11.85448,-25.46658 22.34375,-18.59375 3.44256,2.25565 6.245,6.08766 6.25,8.53125 0.006,2.86825 1.86076,1.4453 5.21875,-4.0625 6.24495,-10.24299 15.57996,-10.61272 17.90625,-0.6875 0.80453,3.43255 2.86405,6.73594 4.59375,7.3125 3.76579,1.25527 4.26005,-3.5466 0.59375,-5.8125 -3.79764,-2.34707 -3.13345,-23.30143 1.0625,-33.34375 4.35969,-10.43421 11.61664,-15.91254 17.21875,-15.9375 z m 101.71875,1.6875 c 3.0954,0 6.41321,2.64321 8.15625,6.46875 1.62126,3.55829 5.91778,7.7911 9.53125,9.4375 3.74745,1.70746 6.25032,4.75608 5.8125,7.0625 -1.76027,9.27296 -43.1875,3.84676 -43.1875,-5.65625 0,-5.26305 13.71428,-17.3125 19.6875,-17.3125 z M 420.1875,673.5 c 0.65113,-0.0583 1.2308,2.5e-4 1.71875,0.1875 5.15599,1.9785 5.07462,8.41096 -0.125,10.40625 -5.90621,2.26642 -13.9375,1.90088 -13.9375,-0.625 0,-3.69158 7.78583,-9.56041 12.34375,-9.96875 z m -46.09375,9.6875 c 3.96272,-0.21213 8.18671,0.88984 9.90625,3.09375 4.23221,5.42438 -1.24371,19.83052 -8.59375,22.625 -8.48119,3.22455 -18.30338,3.14513 -20.34375,-0.15625 -1.6474,-2.66555 7.84737,-20.27564 12.78125,-23.71875 1.60358,-1.11906 3.87237,-1.71647 6.25,-1.84375 z m 21.4375,3.625 c 1.10404,-0.0313 2.2851,0.2468 3.5,0.90625 2.72608,1.47972 6.95389,3.30528 9.40625,4.0625 6.20752,1.9167 3.23155,8.12143 -6.9375,14.40625 -11.59889,7.16851 -14.25,6.55751 -14.25,-3.3125 0,-9.6295 3.49709,-15.92698 8.28125,-16.0625 z m -45.875,10.375 c 0.77848,-0.0461 1.40524,0.0927 1.8125,0.5 1.68444,1.68437 1.66658,4.84688 -0.0312,9.3125 -1.63746,4.30686 -1.6703,7.30689 -0.0937,8.28125 5.3119,3.28294 2.01461,9.10841 -8.125,14.28125 -5.83652,2.97757 -12.90555,4.79 -15.6875,4.0625 -4.23198,-1.10669 -4.79732,-0.32567 -3.53125,4.71875 1.16021,4.62265 -0.34264,7.58531 -6.40625,12.6875 -10.35713,8.71495 -15.00907,8.42339 -16.90625,-1.0625 -1.93067,-9.65333 -3.45834,-9.65333 -9.90625,0 -6.07775,9.09915 -12.77506,9.92973 -16.96875,2.09375 -2.95393,-5.51948 -3.08504,-5.47837 -7.15625,2.96875 -5.06594,10.51102 -21.18353,23.94891 -26.34375,21.96875 -2.07115,-0.79477 -5.27255,-5.18914 -7.125,-9.75 l -3.375,-8.28125 -2.375,8.34375 c -1.312,4.59132 -5.35764,10.29016 -8.96875,12.65625 -6.38347,4.1826 -6.73291,4.07748 -12.96875,-3.21875 -3.52759,-4.12745 -5.75747,-6.14998 -4.9375,-4.5 0.81996,1.64999 0.35883,6.00006 -1.03125,9.65625 -3.09165,8.13165 -11.58583,8.82851 -15.625,1.28125 -3.76786,-7.04031 -6.42516,-33.21875 -3.375,-33.21875 1.2981,0 4.91769,1.79729 8.0625,4 4.5923,3.21657 5.71875,3.32165 5.71875,0.5 0,-1.93226 1.61351,-5.72936 3.59375,-8.4375 3.01818,-4.12761 4.58702,-4.45708 9.65625,-2 12.41801,6.01907 17.7726,5.91417 20.1875,-0.4375 3.54023,-9.31151 7.99602,-10.60228 13.46875,-3.84375 4.25641,5.25646 5.83623,5.7057 12.09375,3.34375 4.47439,-1.68889 8.79985,-1.83361 11.40625,-0.375 3.22026,1.80215 4.1875,1.23853 4.1875,-2.4375 0,-6.25638 13.01927,-18.625 19.59375,-18.625 2.82328,0 6.49175,1.36671 8.15625,3.03125 2.32013,2.32013 4.09567,2.13148 7.59375,-0.875 6.32539,-5.43644 13.09378,-7.52639 14.90625,-4.59375 2.51881,4.07553 5.37688,2.79282 8.34375,-3.71875 3.4231,-7.5129 16.70692,-17.9901 22.15625,-18.3125 z M 410.625,719.28125 422.75,728.5 c 6.66291,5.06214 13.03997,10.82498 14.1875,12.8125 2.8685,4.96822 0.29721,11.8946 -7,18.75 -7.16305,6.72932 -23.70724,9.36905 -31.09375,4.96875 -2.82996,-1.68587 -9.86618,-8.08746 -15.625,-14.21875 -6.14064,-6.53782 -12.77315,-11.125 -16.0625,-11.125 -15.0216,-0.85811 -33.65088,17.5302 -35.66719,27.39372 -0.99321,5.84705 3.88901,18.87944 9.79219,25.70003 11.72424,13.54631 12.28137,18.37238 3.3125,29.03125 -3.66324,4.35351 -8.0133,7.81575 -9.65625,7.71875 -3.42277,-0.20188 -22.58165,-14.14672 -25.15625,-18.3125 -0.94313,-1.52602 1.03561,-8.69856 4.40625,-15.9375 3.37064,-7.23895 6.14235,-15.55549 6.15625,-18.46875 0.0138,-2.91326 1.66091,-7.52121 3.65625,-10.25 6.0988,-8.61437 12.01593,-17.58304 19.13959,-22.07709 9.91527,-4.98097 26.7612,-18.06831 36.48541,-16.36041 4.83697,1.06238 11.4447,-0.2 19.1875,-3.625 z m 144.6875,35.5625 c 2.03361,0.0738 3.03125,4.20465 3.03125,12.4375 0,9.37323 -0.98274,12.39 -4.3125,13.03125 -2.38393,0.4591 -5.64911,-1.60251 -7.25,-4.59375 -2.32497,-4.34427 -1.93856,-7.07301 1.90625,-13.65625 2.84018,-4.86305 5.04331,-7.27611 6.625,-7.21875 z m -258.125,5.78125 c 0.99127,0.008 2.08704,0.69236 3.625,1.96875 5.32201,4.4169 5.27318,16.24259 -0.0937,26.71875 -4.93717,9.63728 -8.10304,12.14113 -13.03125,10.25 -2.73938,-1.0512 -3.1886,0.23492 -1.875,5.46875 3.47884,13.86077 2.87397,15.71031 -4.9375,15.15625 -9.36162,-0.66399 -19.34582,-7.16404 -22.09375,-14.40625 -2.1046,-5.54667 -2.17922,-5.52209 -5.40625,1.4375 -4.28541,9.24217 -9.23642,8.9025 -20.25,-1.3125 -4.9582,-4.59871 -7.76202,-6.62248 -6.25,-4.5 1.51202,2.12247 3.47338,6.87589 4.34375,10.53125 1.30103,5.46409 3.07159,6.625 9.96875,6.625 4.61408,0 9.92586,-1.55084 11.8125,-3.4375 5.10479,-5.10478 7.27864,-4.29437 15.09375,5.5 5.7451,7.20009 8.36775,8.61928 13.625,7.40625 3.57845,-0.82568 7.85667,-3.21804 9.53125,-5.3125 1.67458,-2.09299 4.29331,-3.03265 5.8125,-2.09375 4.35758,2.69315 10.85355,16.71207 9.9375,21.46875 -1.21484,6.30817 -19.87577,4.50807 -25.84375,-2.5 l -4.53125,-5.3125 -0.0312,6.09375 c -0.0643,9.91683 -3.68778,13.41244 -12.15625,11.71875 -11.51568,-2.30315 -26.51647,-12.08812 -29.15625,-19.03125 -1.89082,-4.97325 -3.24808,-5.68222 -6.875,-3.625 -3.62617,2.05679 -6.68816,0.44556 -15.59375,-8.21875 -10.23315,-9.95591 -10.78259,-10.1858 -7.09375,-3.0625 2.19826,4.24494 3.991,9.26737 4,11.1875 0.009,2.01314 1.63013,2.86868 3.8125,2.03125 2.08152,-0.79877 5.4689,0.25015 7.53125,2.3125 2.06235,2.06234 6.0385,3.75 8.84375,3.75 4.78989,0 18.4375,13.29738 18.4375,17.96875 0,1.17394 2.21199,1.55649 4.9375,0.84375 3.73826,-0.97757 6.2902,1.12699 10.3125,8.59375 4.31762,8.01499 5.02656,8.55763 3.78125,2.90625 -1.22048,-5.5387 -0.0357,-8.29043 5.78125,-13.40625 9.07114,-7.97772 15.53823,-8.27608 23.25,-1.03125 3.2749,3.07663 5.96875,4.21366 5.96875,2.53125 0,-2.86562 14.52278,-13.2289 18.5625,-13.25 1.012,-0.005 5.93583,3.57724 10.9375,7.96875 7.18987,6.31279 9.09375,7.07602 9.09375,3.59375 0,-3.51183 1.42139,-4.07585 7.0625,-2.6875 8.91619,2.19441 26.92409,12.617 31.625,18.28125 3.10868,3.74574 2.87194,4.86746 -2,8.8125 -6.24936,5.06044 -5.16512,7.75 3.15625,7.75 3.05497,0 8.25238,2.88279 11.5625,6.40625 5.17344,5.50687 5.62277,7.32439 3.09375,12.875 -2.66805,5.85573 -2.41976,6.4375 2.84375,6.4375 7.25709,0 17.25,6.81522 17.25,11.75 0,5.6155 4.07011,4.43523 8.59375,-2.46875 3.77046,-5.75442 3.7275,-6.0608 -0.6875,-4.90625 -2.5993,0.67973 -8.33976,-0.62561 -12.75,-2.90625 -15.49394,-8.01221 -8.46978,-23.83203 15,-33.78125 l 6.46875,-2.75 -7.03125,-7.03125 c -3.86253,-3.86253 -7.03125,-8.08114 -7.03125,-9.375 0,-7.11516 38.31131,-9.97459 40.59375,-3.03125 0.60808,1.84992 -3.42303,7.66196 -8.96875,12.9375 -9.78675,9.30991 -9.95355,9.71706 -5.0625,13.5 4.39004,3.39544 4.6206,4.69778 1.78125,10.1875 -1.79255,3.46577 -5.71701,9.21255 -8.71875,12.75 l -5.4375,6.4375 L 440,906.625 c 4.23983,-3.68376 9.94342,-7.47619 12.65625,-8.4375 3.75935,-1.33214 4.22622,-2.46128 1.9375,-4.75 -3.24278,-3.24278 -3.98705,-14.43082 -1.40625,-21.15625 0.87896,-2.29052 5.04521,-5.9657 9.28125,-8.15625 5.66381,-2.92885 6.95302,-4.73448 4.84375,-6.84375 -5.99543,-5.99543 -2.94811,-12.14608 8.84375,-17.875 9.79274,-4.75768 12.0937,-5.0964 13.96875,-2.0625 1.88486,3.04977 2.89934,3.06677 6.40625,0.15625 2.29471,-1.90443 3.63062,-4.86894 2.96875,-6.59375 -1.42538,-3.71451 14.6589,-20.09111 17.21875,-17.53125 2.93045,2.93045 2.00553,5.77573 -3.65625,11.4375 l -5.375,5.40625 5.5,-1.75 c 6.80742,-2.1606 13.01065,2.56936 13.03125,9.9375 0.0138,4.74912 0.51598,4.47439 3.84375,-1.90625 3.63321,-6.96628 3.49155,-7.61958 -2.59375,-12.40625 -6.3856,-5.02293 -8.19882,-13.2984 -4.28125,-19.46875 4.83043,-7.60812 19.37824,-15.91909 25.28125,-14.4375 3.58999,0.90101 6.03125,0.35981 6.03125,-1.34375 0,-1.56838 1.14752,-2.875 2.5625,-2.875 1.41498,0 2.5625,1.75253 2.5625,3.875 0,2.12247 -1.72128,3.84375 -3.84375,3.84375 -2.85127,0 -3.875,2.99153 -3.875,11.4375 0,8.89624 -1.26889,12.32068 -5.71875,15.4375 -4.69997,3.29199 -4.92388,4 -1.28125,4 8.13012,0 3.54615,14.4576 -10.40625,32.8125 -6.8969,9.07309 -10.875,10.65798 -10.875,4.34375 0,-3.62477 -0.54365,-3.62477 -5.71875,0 -9.13365,6.39746 -19.40474,5.13332 -24.5625,-3.0625 -4.44399,-7.06166 -4.50939,-7.08665 -13.09375,-2.78125 l -8.625,4.3125 7.34375,0.84375 c 6.0476,0.69185 7.3192,2.04011 7.25,7.6875 -0.0815,6.64094 0.15397,6.74282 6.96875,3.21875 8.57162,-4.43255 24.28141,-4.759 26.875,-0.5625 2.05146,3.31934 -28.24083,32.9375 -33.6875,32.9375 -1.70997,0 -5.22016,-2.29504 -7.78125,-5.125 -4.49753,-4.96969 -4.4836,-5.34033 0.25,-10.84375 3.67586,-4.27368 2.76298,-3.95721 -3.65625,1.28125 -4.70723,3.84139 -9.93356,7.03715 -11.59375,7.09375 -1.66016,0.0566 0.4218,1.92937 4.59375,4.1875 l 7.5625,4.125 -7.5625,6.28125 c -9.31713,7.73943 -41.80721,23.875 -48.0625,23.875 -2.51612,0 -4.5625,-1.07085 -4.5625,-2.40625 0,-1.33541 -5.42795,-0.0285 -12.0625,2.90625 -6.63455,2.93477 -19.38226,5.90817 -28.3125,6.625 -13.85195,1.1119 -16.21875,0.68647 -16.21875,-2.90625 0,-2.31619 1.62267,-4.21875 3.59375,-4.21875 3.33863,0 6.6875,-5.20778 6.6875,-10.375 0,-1.23286 -4.11389,-4.20099 -9.15625,-6.59375 -8.84297,-4.19627 -9.12419,-4.71744 -7.5,-14.90625 0.92612,-5.80976 3.5483,-12.01252 5.8125,-13.78125 3.54661,-2.7705 3.04181,-3.21875 -3.6875,-3.21875 -12.48789,0 -21.13362,-12.48978 -12.125,-17.53125 2.55284,-1.42864 3.43071,-3.63274 2.21875,-5.59375 -1.5436,-2.49759 -2.50888,-2.32993 -4.25,0.78125 -2.96744,5.30253 -23.08427,8.30154 -30.1875,4.5 -4.83907,-2.5898 -5.4375,-2.24068 -5.4375,3.28125 0,6.91241 -6.03965,13.32544 -10.15625,10.78125 -1.46575,-0.9059 -4.23039,-0.70033 -6.15625,0.4375 -2.69286,1.59095 -1.82609,3.43439 3.8125,8.03125 4.90802,4.00126 6.83793,4.67221 5.8125,2 -0.94068,-2.45139 1.47616,-7.00741 6.25,-11.78125 10.85986,-10.85985 20.65107,-10.41577 33.875,1.53125 11.79314,10.65439 13.09401,17.84224 3.96875,22 L 336,907.625 l 10.28125,5.09375 c 11.12345,5.50345 16.53486,12.84504 14.125,19.125 -1.26176,3.28811 -5.63043,3.7821 -25.65625,2.90625 -14.93137,-0.65305 -25.71736,-2.37215 -28.28125,-4.5 -3.75424,-3.11574 -3.53094,-4.03157 2.3125,-9.875 7.8445,-7.8445 7.9113,-8.75806 0.96875,-13.09375 -5.12935,-3.20333 -5.3707,-3.02183 -3.875,2.9375 1.04648,4.16954 0.22466,7.49339 -2.34375,9.625 -7.88585,6.54467 -48.30489,-7.95166 -43.5625,-15.625 0.77095,-1.24742 -3.24829,-4.62884 -8.9375,-7.53125 -13.5649,-6.92028 -20.2107,-16.73883 -15.96875,-23.53125 2.67754,-4.28744 2.16184,-5.31179 -4.03125,-7.9375 -10.06432,-4.26699 -23.84375,-17.65362 -23.84375,-23.15625 0,-2.55239 -1.78619,-4.625 -3.96875,-4.625 -2.34124,0 -7.10583,-6.60712 -11.59375,-16.09375 -9.45083,-19.97724 -9.61771,-23.4925 -1.15625,-21.875 5.31146,1.01536 6.40625,0.22545 6.40625,-4.53125 0,-9.43729 6.0102,-12.5572 15.125,-7.84375 10.17396,5.26115 10.625,5.1833 10.625,-2.46875 0,-7.77379 6.40863,-10.98731 13.34375,-6.65625 2.73103,1.70556 7.09514,2.44778 9.6875,1.625 5.50183,-1.74622 12.96875,4.71006 12.96875,11.21875 0,3.51379 1.7942,4.26643 8.375,3.53125 4.59868,-0.51376 10.26081,-0.94815 12.59375,-0.96875 2.94403,-0.025 4.56331,-2.86394 5.3125,-9.28125 L 286,774.84375 279.1875,783 c -8.11287,9.71791 -10.20719,9.98361 -17.53125,2.1875 -7.11455,-7.5731 -7.07262,-12.40173 0.1875,-19.0625 7.26757,-6.66759 27.65625,-7.51496 27.65625,-1.15625 0,3.18851 0.73947,2.9972 3.59375,-0.90625 1.71127,-2.3403 2.81926,-3.44789 4.09375,-3.4375 z m 244.4375,20.21875 c 1.41498,0 2.5625,0.50102 2.5625,1.125 0,0.62398 -1.14752,1.84425 -2.5625,2.71875 -1.41498,0.87451 -2.5625,0.37349 -2.5625,-1.125 0,-1.49849 1.14752,-2.71875 2.5625,-2.71875 z M 389.28125,860.8125 c 5.00896,-0.15617 11.87295,0.87968 19.84375,3.28125 13.64288,4.11057 14.29058,12.89126 1.5625,21.46875 -4.80795,3.24007 -10.03427,5.8555 -11.59375,5.8125 -5.93804,-0.16383 -11.84375,-5.5381 -11.84375,-10.78125 0,-3.00197 -1.83267,-7.50153 -4.09375,-10 -5.40988,-5.97784 -2.22327,-9.52096 6.125,-9.78125 z m -168.125,3.53125 c 1.27429,-0.15125 2.49844,1.09644 3.96875,3.84375 4.37006,8.16554 1.97432,11.66247 -3.6875,5.40625 -3.51199,-3.8807 -4.09609,-6.18515 -2.09375,-8.1875 0.62573,-0.62573 1.23328,-0.99375 1.8125,-1.0625 z m 24.9375,2.6875 c -0.46986,0.005 -1.00997,0.11973 -1.59375,0.34375 -2.11434,0.81135 -3.22037,2.51456 -2.4375,3.78125 2.24498,3.63246 6.28125,2.6923 6.28125,-1.46875 0,-1.72132 -0.84042,-2.67243 -2.25,-2.65625 z m 24.4375,10.25 c -1.7616,-0.0366 -1.47413,2.18716 -0.125,7.5625 1.65202,6.58221 1.90924,6.67099 6.65625,2.375 4.8579,-4.39635 4.82088,-4.52648 -0.96875,-7.625 -2.731,-1.46159 -4.50554,-2.29057 -5.5625,-2.3125 z m 2.5625,19.3125 c -0.53424,0 -2.42601,1.75253 -4.1875,3.875 -2.62305,3.16058 -2.41857,3.84375 1,3.84375 2.29573,0 4.15625,-1.72128 4.15625,-3.84375 0,-2.12247 -0.43452,-3.875 -0.96875,-3.875 z m 116.21875,16.1875 c -0.46286,0.0724 -1.97177,0.76765 -4.625,2.03125 -3.53745,1.6847 -6.91042,3.48417 -7.5,4 -3.53057,3.08893 4.83921,0.22092 8.9375,-3.0625 2.64871,-2.12204 3.7826,-3.06179 3.1875,-2.96875 z"
         transform="translate(5.0507606,-275.77165)"
         id="path3034"
         inkscape:connector-curvature="0"
         sodipodi:nodetypes="ssssssssssssssssssssscssssssssssssssssssssssssssssssssssssssssscssssssssssssssssssscsssssscccssssssssssssssssssssssssssssssssssssssssssssscsssssssssssssssssssssssssssssssssssscccssssssssssccccssssssscsssssssssssssssccsssssssssssssssssssssssssssssssssssssscccsssssssssssssscssssssssssssscsssssssssssssssscssssssssssscccsssssssssssssssssssssccssssccsscssccccccssssssssssssssssssssscsscccsssssccssssssssscsssssssssssssccsscssscccssssssssssccccsssssssssssssssccccssssssccccsssssssssssssssssssssscccssssssssssssssssssssssccccssssssssssssscssssssssssssssssssssssscsssc" />
    </g>
    <path
       style="fill:#000000"
       d="m 330.23524,950.52475 c -32.32486,-7.75229 -68.63798,-23.33408 -83.94523,-36.02055 -6.71385,-5.56434 -13.43647,-10.117 -14.93916,-10.117 -4.02636,0 -23.74888,-25.699 -29.34867,-38.24214 -2.66444,-5.96815 -8.79724,-16.72503 -13.62844,-23.90417 -10.94477,-16.26386 -25.09294,-54.75616 -25.09294,-68.26924 0,-5.57939 -1.33077,-10.96681 -2.95725,-11.97203 -2.02844,-1.25364 -2.43719,-8.06149 -1.30142,-21.67543 0.91072,-10.91625 2.05564,-26.30417 2.54425,-34.19538 0.89378,-14.4342 7.56566,-30.84922 18.55509,-45.65161 3.19555,-4.30429 6.55288,-10.76072 7.46071,-14.34764 2.02699,-8.00873 53.93773,-61.92727 68.31007,-70.95215 5.74121,-3.60511 18.06715,-9.31272 27.39096,-12.68359 9.32382,-3.37086 20.74574,-8.33894 25.38204,-11.0402 7.83012,-4.56205 50.42673,-10.68921 72.43891,-10.41971 14.38099,0.17606 46.01601,3.2751 48.38629,4.74002 1.28782,0.79591 6.75636,2.01236 12.1523,2.70321 11.295,1.44612 38.5141,18.71818 62.85954,39.88793 13.63332,11.85496 18.38571,18.34595 27.81284,37.98778 6.25344,13.02934 15.58217,29.55544 20.7305,36.72468 12.29194,17.11694 12.24845,25.364 -0.19565,37.10025 -12.34273,11.64074 -18.40923,13.77702 -39.12329,13.77702 -13.29824,0 -18.77979,-1.24172 -24.98411,-5.65958 -12.09647,-8.61346 -36.05334,-17.68719 -46.88143,-17.75647 -7.24484,-0.0463 -11.34255,1.73437 -16.30414,7.08525 -3.64498,3.93094 -6.62723,8.15697 -6.62723,9.39119 0,1.23421 3.99125,6.23527 8.86945,11.11347 6.95431,6.95431 11.03807,8.88937 18.91281,8.9619 5.55366,0.0512 8.02327,0.0813 8.00422,0.72024 -0.0152,0.50896 -1.60969,1.40422 -4.48253,3.00411 -5.72857,3.19024 -5.9665,3.8474 -1.9565,5.40398 2.51085,0.97464 6.04537,2.22664 8.34423,2.05623 2.1075,-0.15621 1.68085,0.23648 4.04692,-0.51626 0,1.52406 -2.34779,3.38498 -5.21732,4.13537 -2.86954,0.7504 -5.21733,3.06741 -5.21733,5.1489 0,2.73364 1.62416,4.16192 5.84904,2.82099 2.99992,-0.95215 2.3796,-0.99067 4.35427,-1.51979 -0.94366,1.63448 -0.72638,1.44681 -2.06503,3.05979 -1.95789,2.35911 -5.09696,4.28929 -6.97573,4.28929 -1.87875,0 -6.01818,3.65451 -9.19869,8.12113 -9.51523,13.36291 -31.28713,19.40044 -44.96078,12.46799 -3.1339,-1.58886 -11.09097,-8.63225 -17.68238,-15.65197 -14.4685,-15.40869 -23.56297,-16.84514 -34.48349,-5.44658 -13.66231,14.26039 -5.56446,32.58843 18.13065,41.03551 7.57622,2.70082 8.5662,3.62061 3.9897,3.7067 -3.69756,0.0697 -5.64559,1.39449 -4.96267,3.37532 0.61831,1.79345 1.38227,4.56065 5.08061,4.51241 3.39239,-0.0443 3.94865,0.43242 8.00033,0.15671 -1.35026,2.04074 -2.61909,3.4097 -8.15428,5.73999 -6.74419,2.83927 -7.48523,3.20726 -1.76522,4.20136 3.66594,0.63711 6.147,0.91897 9.12237,-0.10777 -1.19755,2.26653 -4.98236,6.22337 -9.71241,7.40085 -3.94561,0.9822 -10.88941,4.74037 -15.43065,8.35149 l -8.25684,6.56567 13.47416,4.99018 c 15.91879,5.89561 50.7384,10.03749 56.99714,6.77999 2.41617,-1.25755 12.84412,-4.06419 23.17317,-6.23697 17.87211,-3.75953 40.93579,-13.42503 49.38935,-20.69809 2.15215,-1.85161 5.32287,-3.81319 7.04608,-4.35911 9.58368,-3.03611 34.79153,-32.55199 46.28619,-54.19649 14.41865,-27.15044 20.54517,-33.97415 26.90252,-29.96404 10.47294,6.60616 12.23979,49.19094 3.34242,80.55929 -7.56877,26.68434 -12.11664,35.44501 -30.15104,58.08069 -28.18326,35.37387 -64.04659,58.57484 -111.61433,72.2064 -33.77033,9.67754 -64.53933,10.7193 -95.72295,3.24068 z m 72.22396,-11.80731 c 15.42747,-7.87051 18.20659,-12.23629 10.77566,-16.92777 -11.11041,-7.01451 -16.16111,-6.96807 -30.89317,0.28405 -10.53142,5.18428 -14.16791,8.33257 -13.49921,11.68689 0.66748,3.34828 -1.25645,5.02548 -7.10701,6.19561 -4.41225,0.88247 -8.02227,2.80103 -8.02227,4.26359 0,4.54264 37.31161,0.33107 48.746,-5.50237 z m 59.85069,-20.09889 c 7.70575,-5.30714 14.01048,-10.5336 14.01048,-11.61429 0,-2.08025 -12.85928,-5.22572 -21.36381,-5.22572 -2.78282,0 -7.80481,3.26242 -11.15999,7.24981 -3.35515,3.98739 -9.14887,8.88135 -12.8749,10.87546 -3.72601,1.99412 -6.77456,5.17821 -6.77456,7.07574 0,1.89755 -2.34781,4.91629 -5.21733,6.70834 -10.51295,6.56543 -4.7724,6.97295 12.07615,0.85726 9.51142,-3.45246 23.5982,-10.61943 31.30396,-15.9266 z m -99.02167,16.14632 c 3.18266,-3.25148 -20.47397,-22.91504 -25.227,-20.96885 -2.15215,0.8812 -8.90206,2.21215 -14.99981,2.95763 -6.90309,0.84392 -11.08682,2.68522 -11.08682,4.87942 0,1.93821 -3.02069,4.28217 -6.71266,5.2088 -7.99135,2.0057 -5.76128,4.84178 6.71266,8.53674 10.52954,3.119 48.09977,2.66971 51.31363,-0.61374 z m -57.11013,-13.36431 c 1.63634,-1.43925 -5.09397,-15.35041 -11.47264,-23.71327 -4.40801,-5.77921 -9.02978,-8.95207 -13.04011,-8.95207 -5.39482,0 -6.21203,1.23716 -6.21203,9.40434 0,9.39843 -0.006,9.40368 -10.43466,8.4092 -11.85803,-1.13085 -13.11794,0.69756 -4.41157,6.40219 10.5699,6.92566 28.89599,12.17395 37.01987,10.60186 4.30429,-0.83295 8.15231,-1.80143 8.55114,-2.15225 z m 79.32108,-6.32365 c 15.66952,-9.93732 16.52904,-11.85064 8.2493,-18.36349 -9.59896,-7.55053 -16.63165,-8.86173 -29.27322,-5.45768 -9.50355,2.55901 -10.62428,3.64174 -9.28657,8.97161 1.09642,4.36846 0.19208,6.58054 -3.23792,7.92019 -4.25941,1.6636 -3.93735,2.52124 3.06677,8.1666 10.17806,8.20356 15.96545,7.96865 30.48164,-1.23723 z m 47.23831,-3.0985 c 9.64647,-7.95144 19.17563,-22.43338 16.51313,-25.09586 -0.75229,-0.75232 -6.50969,-1.94739 -12.79422,-2.65575 -9.57726,-1.07949 -13.1161,-0.0848 -21.86771,6.1459 -12.7265,9.06075 -14.15459,18.74012 -3.70227,25.09331 9.49856,5.77347 10.88404,5.55233 21.85107,-3.4876 z m -98.51897,-2.66371 c 17.87356,-4.50062 18.77893,-7.73118 5.86432,-20.92523 -8.75253,-8.94192 -13.20477,-11.49792 -20.69319,-11.87974 -8.12736,-0.41445 -9.77765,0.45536 -11.13652,5.86948 -1.04601,4.16768 -3.44927,6.35601 -6.98027,6.35601 -5.99607,0 -5.9955,0.003 2.52264,13.69548 6.73103,10.81967 10.97726,11.78049 30.42302,6.884 z m 172.75364,-17.45162 c 8.96728,-7.70202 16.30415,-15.11516 16.30415,-16.47365 0,-4.13418 -7.30866,-5.58851 -18.94484,-3.76975 -9.56785,1.49547 -12.10295,3.37678 -18.84741,13.98687 -10.29455,16.19489 -10.28724,16.17199 -5.16382,16.17199 3.19139,0 4.0412,1.50447 3.03129,5.36641 -1.65866,6.34275 -1.24376,6.0743 23.62063,-15.28187 z m -237.42516,2.26555 c -1.63185,-12.16628 -13.56137,-39.30602 -17.27733,-39.30602 -1.43165,0 -2.96397,4.98906 -3.40515,11.08681 -0.82004,11.33396 -1.45254,11.77253 -12.2442,8.4901 -5.79432,-1.76243 -6.09547,-1.37839 -4.35543,5.55442 3.12569,12.45378 8.75028,16.72226 28.84078,21.88726 4.3043,1.10657 8.27403,2.13211 8.82164,2.27898 0.5476,0.14687 0.37646,-4.34932 -0.38031,-9.99155 z m 208.58104,-4.86807 c 7.1803,-9.71203 14.49227,-24.22489 12.97142,-25.74576 -0.69168,-0.69166 -6.80475,-0.42576 -13.58458,0.59094 -14.34384,2.151 -31.22809,14.99162 -25.04549,19.04728 2.16269,1.41869 2.8783,4.40698 1.83929,7.68061 -1.40383,4.42304 -0.42797,5.51826 5.59034,6.2741 9.97694,1.25299 12.21266,0.29055 18.22902,-7.84717 z m -59.58673,-9.20444 6.13317,-6.56618 -8.02425,-4.1495 c -4.41333,-2.28222 -15.39056,-4.88003 -24.39381,-5.77292 l -16.36957,-1.6234 7.67836,8.19543 c 5.90466,6.30227 6.96648,8.90728 4.59664,11.27712 -2.36984,2.36984 -1.47682,4.1345 3.86587,7.63927 6.02227,3.95055 7.84208,4.09197 13.66399,1.06193 3.69402,-1.92256 9.47636,-6.45036 12.8496,-10.06175 z m -49.64959,4.66504 c 7.43423,-2.20773 13.51679,-4.98238 13.51679,-6.16593 0,-7.31795 -28.46249,-26.14123 -39.74377,-26.284 -4.18602,-0.0529 -4.14711,0.5671 0.51696,8.23656 5.6053,9.21714 4.89339,12.57545 -2.66576,12.57545 -6.5245,0 -6.38728,2.16749 0.60868,9.61436 6.69025,7.12145 9.83016,7.35027 27.7671,2.02356 z M 225.7182,876.32407 c -2.43026,-6.97145 -9.27502,-12.92549 -11.87275,-10.32775 -0.47402,0.47402 2.14615,5.28854 5.8226,10.69894 7.70389,11.33726 10.0809,11.19144 6.05015,-0.37119 z m 77.1623,4.52654 c 0.90666,-1.467 -0.25148,-8.38747 -2.57363,-15.37882 -2.95808,-8.90593 -5.94373,-13.17315 -9.97267,-14.25342 -9.41814,-2.52521 -11.83477,-1.88366 -13.57656,3.60424 -1.03925,3.27436 -3.94699,5.21732 -7.80805,5.21732 l -6.15214,0 4.37143,10.35065 c 2.40429,5.69286 6.13228,10.83923 8.28443,11.43638 8.03639,2.22983 25.83729,1.59617 27.42719,-0.97635 z m 151.17218,-12.2859 c 3.63864,-5.35476 6.6157,-10.6373 6.6157,-11.73899 0,-3.05642 -23.45568,-2.0063 -35.21695,1.57668 l -10.43465,3.17881 7.30486,4.83257 c 4.11214,2.72039 6.71326,6.37414 5.95135,8.35967 -0.99588,2.59523 1.35695,3.52712 8.90524,3.52712 8.92498,0 11.11889,-1.2658 16.87445,-9.73586 z m -114.4804,-1.0333 c 2.24577,-3.63371 -14.37112,-23.14345 -19.71181,-23.14345 -2.59546,0 -5.39472,1.76084 -6.22057,3.91298 -0.82586,2.15216 -4.0118,3.913 -7.07986,3.913 -4.28951,0 -5.14409,1.05471 -3.6989,4.56517 1.03366,2.51083 2.45269,6.55303 3.1534,8.98267 1.86177,6.45552 29.7527,7.92633 33.55774,1.76963 z m -95.42293,-7.0009 c 0,-8.03974 -1.5094,-11.06002 -7.88187,-15.7714 -4.33504,-3.20503 -8.87374,-5.21433 -10.08602,-4.46509 -1.21227,0.74924 -4.30381,-0.95787 -6.87008,-3.79357 -6.2612,-6.91856 -7.86898,-6.53843 -11.72561,2.7723 -2.97165,7.1742 -2.69165,8.57131 2.94435,14.69179 6.13602,6.66346 23.99269,16.3409 30.35841,16.45276 2.04839,0.036 3.26082,-3.64008 3.26082,-9.88679 z m 277.17113,1.06987 c 3.85124,-5.63717 7.41322,-22.78109 5.7935,-27.88437 -1.74149,-5.48693 -4.24605,-5.30815 -20.89722,1.49164 -9.43639,3.85351 -14.72825,17.35145 -10.47756,26.72508 2.29649,5.06417 3.97346,5.59672 13.12844,4.16911 5.77262,-0.90018 11.3764,-2.92583 12.45284,-4.50146 z m 17.19954,-4.88006 c 6.46289,-9.3935 16.06023,-28.6769 16.06023,-32.26895 0,-0.57132 -4.64172,1.32927 -10.31494,4.22353 -8.4416,4.30659 -10.63687,7.04037 -12.08762,15.05282 -0.97497,5.38481 -3.40679,13.01878 -5.40404,16.96437 -6.09659,12.04404 2.79594,9.03724 11.74637,-3.97177 z m -53.25158,0.32244 c 5.1721,-6.07383 9.04927,-23.08946 5.26118,-23.08946 -0.79351,0 -5.7616,2.93475 -11.04023,6.52166 -5.2786,3.58691 -11.08583,6.52166 -12.9049,6.52166 -1.81909,0 -3.30745,1.17389 -3.30745,2.60866 0,1.43476 1.13707,2.60866 2.52682,2.60866 1.38971,0 1.80547,1.8797 0.92387,4.17707 -1.34116,3.49504 -0.0209,3.96404 8.07898,2.87235 5.32501,-0.71762 10.03279,-1.71689 10.46173,-2.2206 z M 272.84465,841.63224 c 0,-11.54814 -1.05555,-14.15798 -8.47816,-20.96205 l -8.47815,-7.7717 -4.74721,5.8239 c -3.99075,4.89585 -5.54393,5.32634 -9.74709,2.70143 -7.18257,-4.48561 -7.67934,-4.10558 -7.67934,5.87507 0,7.10232 1.80226,10.3722 8.55611,15.52363 9.47069,7.22365 19.0504,11.5827 26.00868,11.83472 3.76767,0.13644 4.56516,-2.13887 4.56516,-13.025 z m 32.71764,-1.65035 c -0.96833,-3.85808 -4.3238,-10.60799 -7.45662,-14.99981 l -5.69605,-7.9851 -0.82602,7.17989 c -0.71045,6.1753 -1.7142,6.95699 -7.17383,5.58671 -5.52426,-1.38651 -6.34779,-0.69951 -6.34779,5.29532 0,7.80995 6.4378,11.50695 20.49993,11.77236 8.23126,0.15547 8.65451,-0.25879 7.00038,-6.84937 z M 204.97946,829.56148 c 0.0515,-7.34659 -15.30976,-32.12946 -19.91495,-32.12946 -4.63264,0 -4.44856,4.94516 0.64358,17.2899 7.33176,17.77413 14.53533,27.94463 17.01819,24.02749 1.21728,-1.92048 2.23121,-6.05506 2.25318,-9.18793 z m 110.90813,7.00048 c -0.88674,-1.43476 -2.71686,-2.60866 -4.06695,-2.60866 -1.3501,0 -2.45471,1.1739 -2.45471,2.60866 0,1.43477 1.83013,2.60866 4.06695,2.60866 2.23683,0 3.34144,-1.17389 2.45471,-2.60866 z m 28.60452,-8.09621 c 12.98606,-11.40192 12.65888,-21.52704 -1.21356,-37.55539 -8.16,-9.42814 -10.42201,-14.1542 -10.37665,-21.68013 0.093,-15.42274 12.13698,-26.58013 28.69232,-26.58013 6.50414,0 11.20068,3.00052 22.45752,14.34764 13.51476,13.62316 14.89959,14.34765 27.42529,14.34765 11.52422,0 14.31298,-1.12119 22.06126,-8.86946 11.54082,-11.54082 11.71932,-20.51596 0.59352,-29.8437 -4.55175,-3.81615 -11.20084,-9.71901 -14.77575,-13.11749 -6.30026,-5.98929 -6.73053,-6.04278 -14.01162,-1.74173 -10.4389,6.16641 -22.54515,9.35921 -24.35906,6.42425 -2.73515,-4.42558 -7.96596,-2.50373 -18.32015,6.731 -5.641,5.03112 -12.50846,9.86859 -15.26103,10.74994 -2.75257,0.88136 -10.50266,7.10045 -17.22243,13.82022 -8.71455,8.71456 -12.75889,15.169 -14.105,22.51052 -1.03798,5.66101 -4.61763,15.22256 -7.95478,21.24786 l -6.06753,10.95509 5.61223,5.55279 c 5.71089,5.6504 25.19282,20.79728 26.74947,20.79728 0.47017,0 5.00435,-3.64331 10.07595,-8.09621 z m -116.51226,-6.79211 c 1.38168,-18.56139 -20.77409,-43.19795 -30.29022,-33.68182 -2.31238,2.31239 -3.1622,6.14718 -2.18761,9.87156 2.19186,8.37621 25.08993,36.54777 28.73373,35.35123 1.62651,-0.53413 3.31135,-5.72756 3.7441,-11.54097 z m 282.92103,6.53484 c 6.19703,-2.24324 12.59739,-13.29276 9.42789,-16.27626 -0.53102,-0.49982 -6.83495,4.40621 -14.00878,10.90231 -7.17382,6.49611 -10.69552,10.94832 -7.82599,9.89379 2.86953,-1.05452 8.45262,-3.08847 12.40688,-4.51984 z m 43.02184,-23.65852 c -0.65797,-6.84747 -1.90005,-13.15374 -2.7602,-14.01389 -1.74841,-1.74841 -25.16338,11.28299 -25.47835,14.17972 -1.35702,12.4806 -0.63163,18.80323 2.15728,18.80304 1.79346,-1.1e-4 3.26084,1.15846 3.26084,2.57456 0,1.41612 5.40377,-0.0506 12.00835,-3.25934 l 12.00835,-5.83411 z m -268.03476,12.83629 c 0,-5.51474 -4.62293,-22.24017 -6.89294,-24.93819 -0.49558,-0.58901 -3.13951,0.95483 -5.8754,3.43079 -3.25485,2.9456 -5.56795,3.54123 -6.6916,1.7231 -2.762,-4.46898 -5.90289,-3.21951 -7.52793,2.99469 -1.80236,6.89222 4.09226,14.33867 15.24889,19.26333 10.75519,4.74745 11.73898,4.54015 11.73898,-2.47372 z m -31.25652,-21.4689 c 2.58045,-11.44135 -2.69076,-18.3071 -10.74566,-13.99625 -5.07253,2.71473 -6.53466,2.38887 -10.33402,-2.30315 -4.35831,-5.38229 -4.4944,-5.38916 -8.96213,-0.45238 -6.38952,7.06034 -3.39418,16.18186 9.57153,29.14757 l 10.74841,10.74839 3.95227,-7.54318 c 2.17374,-4.14874 4.77006,-11.1692 5.7696,-15.601 z m 42.32132,-0.65516 c 2.40003,-4.06295 5.4631,-12.28023 6.80681,-18.26065 1.96066,-8.72626 1.72516,-10.87348 -1.19259,-10.87348 -1.99964,0 -3.6357,-1.1739 -3.6357,-2.60866 0,-6.11097 -4.39515,-1.74203 -9.84116,9.78248 -6.57086,13.90489 -6.97686,17.07704 -3.11038,24.30163 3.65421,6.82797 5.83095,6.3635 10.97302,-2.34132 z m 264.52297,-7.45622 c -3.64208,-3.6421 -6.01224,1.08685 -3.5171,7.01739 l 2.74382,6.52165 1.06268,-6.09347 c 0.58448,-3.35143 0.45426,-6.70192 -0.2894,-7.44557 z m -367.31026,-1.66663 5.7075,-6.07536 -5.90493,-13.4447 c -3.37071,-7.67461 -7.24708,-12.96132 -9.03223,-12.3184 -1.72,0.61946 -3.85343,-1.1616 -4.74095,-3.95792 -3.0209,-9.51803 -6.56358,-5.24363 -4.97503,6.00261 2.0296,14.36864 8.7993,35.86912 11.29386,35.86912 1.06936,0 4.51266,-2.7339 7.65178,-6.07535 z m 82.15144,-2.40281 c 7.32988,-9.79188 15.60751,-25.43446 13.45925,-25.43446 -0.8047,0 -4.19085,1.78729 -7.52479,3.97176 -5.32376,3.48828 -6.44876,3.50537 -9.24147,0.14036 -2.7143,-3.27056 -4.32776,-2.52394 -11.02195,5.10031 l -7.84215,8.93173 5.61406,7.88422 c 3.08774,4.33634 6.64828,7.88424 7.91233,7.88424 1.26405,0 5.15418,-3.81517 8.64472,-8.47816 z m 270.43735,-0.93126 c 0,-1.99864 -1.1739,-3.6339 -2.60866,-3.6339 -1.43476,0 -2.60866,0.49094 -2.60866,1.09099 0,0.60003 -0.71765,2.96114 -1.59478,5.2469 -1.16725,3.04181 -0.46791,3.72352 2.60866,2.54292 2.31191,-0.88715 4.20344,-3.24826 4.20344,-5.24691 z m -327.26264,-5.31916 c 7.22024,-7.79076 7.56081,-9.84992 3.53783,-21.39023 -2.40849,-6.90903 -3.84491,-7.95469 -9.11151,-6.63285 -4.82604,1.21126 -6.725,0.29127 -8.32465,-4.03301 l -2.0724,-5.60222 -5.79438,6.16784 -5.79437,6.16782 8.05157,16.11262 c 4.42837,8.86194 9.1899,16.11262 10.58119,16.11262 1.39129,0 5.40831,-3.10616 8.92672,-6.90259 z m 342.41082,-8.08626 c 0.44028,-6.06695 -0.2087,-12.83406 -1.44203,-15.03802 -1.78153,-3.18342 -3.44721,-1.86371 -8.10277,6.41972 -4.73401,8.42306 -5.3004,11.47295 -2.94713,15.87007 4.90379,9.16281 11.58205,5.28599 12.49193,-7.25177 z m -303.74395,-5.84927 c 5.30539,-5.87242 9.20031,-11.51002 8.6554,-12.52799 -0.54493,-1.01795 -1.73763,-3.94621 -2.65047,-6.50722 -1.53325,-4.30165 -2.24961,-4.35133 -9.403,-0.65217 -10.56187,5.46175 -12.85259,5.07098 -14.75716,-2.51744 -1.98956,-7.92702 -4.00712,-8.1491 -10.35093,-1.13928 -4.73367,5.23066 -4.73683,5.76382 -0.11224,18.91281 8.25298,23.46553 11.03318,23.89602 28.61839,4.43129 z m 29.57249,-11.11801 c 2.94863,-3.22821 6.13746,-11.29565 7.08629,-17.92764 1.58053,-11.0473 1.22707,-12.18841 -4.2163,-13.61188 -4.41126,-1.15358 -8.13475,0.57209 -14.45756,6.70039 -9.76886,9.46837 -9.79023,9.56611 -4.7362,21.6621 4.39226,10.51218 8.83427,11.37671 16.32377,3.17703 z m 29.33555,-0.94695 c 6.34713,-5.34077 7.45963,-7.58914 5.13878,-10.38558 -1.62915,-1.96301 -2.51219,-8.28679 -1.96231,-14.05284 0.54988,-5.76606 0.63759,-10.48374 0.19489,-10.48374 -0.44268,0 -4.80591,1.67174 -9.69606,3.71498 -7.00679,2.92761 -9.25397,5.64879 -10.60293,12.83938 -2.16098,11.51905 0.72632,25.18425 5.32116,25.18425 1.92806,0 7.15097,-3.06741 11.60647,-6.81645 z M 194.63678,741.29039 c 6.01497,-6.40265 6.68338,-11.62992 3.99578,-31.24859 -1.86346,-13.60256 -3.91133,-14.66762 -13.62958,-7.08847 -8.49521,6.62533 -9.00302,7.85548 -7.77192,18.82746 1.53192,13.65287 5.82563,26.08663 9.00841,26.08663 1.22018,0 4.99897,-2.95966 8.39731,-6.57703 z m 34.33152,-8.15571 c 3.49935,-3.86808 4.07645,-8.08534 2.89235,-21.13638 -0.97273,-10.72146 -2.62059,-16.30414 -4.81253,-16.30414 -1.83332,0 -3.77632,-1.32906 -4.31778,-2.95347 -0.67889,-2.03669 -3.58049,-1.61102 -9.34771,1.37132 -7.75598,4.01078 -8.36322,5.29236 -8.36322,17.65063 0,7.3292 1.34261,17.80705 2.98356,23.28409 2.90225,9.68682 3.16906,9.86234 9.78865,6.43922 3.7428,-1.93547 8.7723,-5.69354 11.17668,-8.35127 z m -58.74251,1.03726 c -0.72367,-1.79346 -1.31577,-0.32609 -1.31577,3.26082 0,3.58691 0.5921,5.05429 1.31577,3.26084 0.72368,-1.79346 0.72368,-4.72821 0,-6.52166 z m 88.60173,0.87636 c 10.19994,-6.21966 29.66911,-26.27818 29.66911,-30.56722 0,-2.37467 -2.1928,-2.57651 -8.46094,-0.77883 -4.65351,1.33461 -12.8708,2.42656 -18.26064,2.42656 -9.41877,0 -9.79971,-0.34715 -9.79971,-8.93038 l 0,-8.93038 -7.82599,3.90412 c -6.60942,3.29722 -7.82598,5.42427 -7.82598,13.68299 0,12.20021 7.2911,34.18958 11.33204,34.17652 1.65857,-0.005 6.68603,-2.24789 11.17211,-4.98338 z m 84.37795,-5.40424 c 11.56282,-5.89891 15.50006,-10.47194 9.01603,-10.47194 -3.52637,0 -4.12344,-1.6961 -2.98455,-8.47815 0.78305,-4.66298 2.29898,-10.69626 3.36875,-13.4073 2.317,-5.87177 -1.47874,-4.10446 -13.82879,6.43875 -9.61062,8.20455 -13.759,15.56289 -13.759,24.40553 0,8.19162 4.38201,8.55617 18.18756,1.51311 z m -30.96798,-16.04953 c 4.87708,-1.6329 12.94771,-6.0035 17.93473,-9.71244 l 9.0673,-6.74352 -11.33038,-2.24068 c -11.13083,-2.20123 -11.30489,-2.39771 -9.88347,-11.15686 1.37059,-8.44597 1.04469,-8.91618 -6.18007,-8.91618 -6.34185,0 -8.32117,1.64833 -11.74692,9.78249 -2.26598,5.38037 -5.06491,14.77155 -6.21988,20.86931 -1.95972,10.34657 -1.71297,11.08681 3.69566,11.08681 3.18758,0 9.78594,-1.33601 14.66303,-2.96893 z m 63.41474,-4.56885 c 2.82914,-1.10932 6.35693,-6.60792 8.16222,-12.72208 l 3.17952,-10.76833 -7.81543,-1.71655 c -9.30043,-2.04272 -15.32138,2.93295 -21.47273,17.74493 l -4.06262,9.78249 8.51315,-0.18334 c 4.68225,-0.10089 10.7554,-1.06254 13.49589,-2.13712 z m 30.5509,-8.00721 11.42232,-10.32766 -8.47816,-0.10699 c -4.66298,-0.0588 -8.47816,-1.28088 -8.47816,-2.71566 0,-6.09084 -7.55163,-1.93159 -10.17945,5.6066 -7.05842,20.24779 -1.36183,22.9826 15.71345,7.54371 z m -222.49286,-4.0502 c 6.56142,-5.52106 7.92679,-8.77068 8.67831,-20.65471 1.05457,-16.67599 -2.35591,-15.66431 -12.01712,3.56476 -12.11555,24.11401 -11.11221,29.24968 3.33881,17.08995 z m 354.5985,-0.83298 c 13.78397,-9.81505 14.20801,-12.88972 3.71594,-26.94343 -5.14981,-6.89795 -10.00757,-11.6126 -10.79502,-10.47699 -3.83919,5.53663 -13.93646,10.02278 -19.96503,8.87035 -3.68161,-0.70379 -12.27167,-6.85748 -19.08908,-13.67488 -15.46027,-15.46028 -30.60225,-25.14585 -42.9263,-27.45786 -7.9299,-1.48765 -11.03919,-0.59948 -18.90538,5.40035 -8.9997,6.86441 -9.34263,7.70555 -7.78242,19.08845 2.1692,15.82621 11.38867,25.41393 26.63646,27.70048 6.34173,0.95101 21.24302,6.64421 33.11395,12.65157 25.98581,13.15029 42.34264,14.56463 55.99688,4.84196 z m -84.89422,-30.59448 c -3.83943,-2.68925 -5.92341,-6.60103 -5.92341,-11.47224 0,-4.87121 1.59168,-6.10486 2.37582,-7.87013 0.92184,1.92445 1.08114,2.59528 2.21826,3.53901 5.62896,4.67163 11.07456,1.27023 10.20929,-5.42836 -0.46583,-3.60629 -2.31377,-3.15893 -3.14106,-4.75498 1.06578,-0.13403 4.18644,-0.16649 5.90952,0.43473 2.60464,0.90883 6.20311,3.47362 7.99656,5.6995 9.98234,12.38924 -6.50814,29.05387 -19.64498,19.85247 z M 280.36062,698.02 c 4.63961,-1.61738 9.98384,-6.15825 12.12827,-10.30511 5.11783,-9.89681 4.83229,-12.89004 -1.22965,-12.89004 -7.00266,0 -7.81908,-2.26594 -5.46158,-15.15818 l 2.04807,-11.20003 -8.1527,1.74689 c -4.48399,0.9608 -9.04148,2.27024 -10.12776,2.90988 -4.67323,2.75177 -9.95045,17.5032 -11.47305,32.07067 l -1.6428,15.71741 7.80834,0 c 4.29459,0 11.54088,-1.30117 16.10286,-2.89149 z m -67.26576,-10.32947 c 5.60721,-3.99269 7.5931,-7.55246 7.6403,-13.69548 0.0351,-4.56528 1.25688,-13.47647 2.71511,-19.80262 3.32636,-14.4305 0.55427,-17.55085 -10.16043,-11.43686 -10.05033,5.73489 -16.09642,19.76021 -16.09642,37.3394 0,14.91789 3.36253,16.52406 15.90144,7.59556 z m 29.56586,-0.88157 c 7.36102,-3.07563 9.44461,-5.91882 12.90411,-17.60847 3.6336,-12.27798 3.66557,-14.28603 0.26807,-16.83686 -2.12165,-1.59294 -3.85756,-5.22332 -3.85756,-8.06751 0,-4.51217 -1.23726,-4.97014 -9.70792,-3.59327 -8.58014,1.39467 -10.07211,2.78646 -12.84284,11.9805 -3.44804,11.44161 -4.53801,33.31313 -1.79676,36.05437 2.52302,2.52301 5.20049,2.17949 15.0329,-1.92876 z m 118.30531,-2.46813 c 3.9302,-3.93123 4.00123,-4.79366 0.57316,-6.95924 -2.15215,-1.35956 -5.06205,-2.87402 -6.46645,-3.36548 -1.4044,-0.49146 -0.52398,-3.99094 1.9565,-7.77662 2.48047,-3.78567 4.5093,-7.21783 4.50852,-7.627 -7.8e-4,-0.40917 -5.20066,-1.04125 -11.55528,-1.40463 -10.11508,-0.57839 -12.21836,0.27253 -16.88991,6.83312 -6.97992,9.80238 -11.14167,20.97512 -9.06481,24.33556 2.67367,4.32609 31.75514,1.14876 36.93827,-4.03571 z m 61.99045,-1.73322 c 5.78649,-2.20002 6.42775,-3.3113 3.76341,-6.52166 -4.15006,-5.0005 -7.55948,-4.88709 -13.4542,0.44754 -9.08495,8.22178 -4.12873,11.3283 9.69079,6.07412 z m -17.28839,-6.2153 c 2.44568,-2.94687 1.12544,-4.57987 -6.8544,-8.47816 -6.2695,-3.06276 -9.74971,-6.50568 -9.51754,-9.41556 0.23186,-2.90606 -2.08215,-5.20174 -6.31385,-6.26382 -5.37331,-1.34862 -8.15269,-0.0282 -14.20982,6.75095 -4.14147,4.63511 -7.07564,9.79042 -6.52038,11.45623 2.52062,7.56185 38.03857,12.42975 43.41599,5.95036 z m -78.79432,-13.62081 6.83602,-6.83603 -6.28376,-4.73985 c -5.66775,-4.27519 -5.98814,-5.52303 -3.2682,-12.72895 l 3.01554,-7.98909 -11.29962,0 c -10.11706,0 -11.89492,0.9632 -16.98777,9.20362 -3.12848,5.06199 -6.31354,13.86623 -7.0779,19.56498 l -1.38975,10.36135 14.8097,0 c 12.50041,0 15.87565,-1.06595 21.64574,-6.83603 z m 89.78224,-1.14489 c -0.53318,-2.06694 -1.12013,-6.98361 -1.30432,-10.92594 -0.41429,-8.86687 -1.78417,-8.91604 -11.87374,-0.42622 -9.86746,8.30292 -9.99431,10.34524 -0.85232,13.72244 9.24127,3.41387 15.26016,2.39705 14.03038,-2.37028 z m 108.08082,-6.23901 c 5.1098,-7.79854 3.17631,-15.10999 -5.87953,-22.23331 -11.45568,-9.01104 -14.68398,-7.14343 -13.26046,7.67139 1.95442,20.33988 10.89647,27.14311 19.13999,14.56192 z M 371.0967,647.43389 c 0.4627,-1.43476 -2.67235,-4.60838 -6.96677,-7.05249 -8.57385,-4.87966 -9.92324,-10.1182 -3.89507,-15.12115 5.63151,-4.67373 4.85457,-7.02406 -2.97123,-8.98822 -5.38571,-1.35172 -8.5595,-0.13565 -14.58054,5.5867 -7.22003,6.86186 -16.46851,21.32328 -14.5967,22.8242 8.28485,6.64326 41.07863,8.74077 43.01031,2.75096 z m 128.73273,-11.08681 -1.33543,-14.99982 -9.78248,-0.80964 c -8.68005,-0.71839 -9.78249,-0.13948 -9.78249,5.13694 0,5.02263 16.57038,25.30828 20.9004,25.58651 0.73447,0.0471 0.73447,-6.6641 0,-14.91399 z m -224.37612,9.55965 c 12.10859,-2.78908 23.47797,-11.1126 23.47797,-17.1882 0,-1.90205 -1.89777,-3.45828 -4.21725,-3.45828 -4.16323,0 -4.11269,-3.02238 0.22633,-13.53637 1.44554,-3.50272 -0.0636,-4.75908 -7.36077,-6.12805 -5.0485,-0.94711 -10.44593,-0.93906 -11.99429,0.018 -6.39359,3.95146 -19.71652,36.2633 -16.85877,40.88725 1.70705,2.76205 2.23753,2.74321 16.72678,-0.59423 z m 125.45822,-1.30087 c 4.30864,-3.89926 4.09949,-4.56243 -3.70758,-11.75641 l -8.2738,-7.62405 6.23904,-5.26512 c 7.0521,-5.95127 6.85523,-6.64905 -2.54139,-9.00745 -5.50819,-1.38247 -9.03406,0.40114 -19.46943,9.84888 l -12.74311,11.5371 14.25744,8.17522 c 16.24604,9.31549 19.84635,9.87695 26.23883,4.09183 z M 223.41407,627.6185 c 1.59355,-2.97757 2.19771,-6.1134 1.34259,-6.96852 -1.74878,-1.74877 -19.73725,14.86811 -19.73725,18.23231 0,3.78823 15.37898,-5.62895 18.39466,-11.26379 z m 27.72726,6.0384 c 5.24452,-3.33533 19.43074,-32.58199 16.98861,-35.02413 -1.30505,-1.30505 -7.7149,-0.26633 -14.96255,2.42465 -13.0217,4.83486 -19.86254,12.84069 -23.46721,27.46366 -1.7,6.89632 -1.37904,7.17228 8.29688,7.13388 5.53591,-0.0219 11.45083,-0.9211 13.14427,-1.99806 z m 173.81602,-5.27228 c 5.43982,-5.67794 6.30605,-8.00793 3.87932,-10.43465 -4.29978,-4.29977 -13.85917,-3.91254 -23.24613,0.94166 -8.88969,4.59702 -8.73377,8.79175 0.50192,13.50399 9.01964,4.60201 11.02075,4.17654 18.86489,-4.011 z m 49.41362,-9.75473 c 0.74931,-3.91985 -0.28284,-8.27251 -2.48354,-10.47321 -4.06361,-4.06362 -24.26236,-5.26749 -24.26236,-1.44607 0,6.23836 19.13322,21.88006 23.81866,19.47214 0.90476,-0.46497 2.222,-3.86375 2.92724,-7.55286 z m -136.19249,0.003 c 5.10969,-4.62421 5.16656,-5.13258 0.92126,-8.23683 -3.84228,-2.80954 -4.0503,-4.3493 -1.37953,-10.21101 1.72976,-3.7964 2.80759,-7.1788 2.39518,-7.51643 -7.50899,-6.14738 -12.30947,-5.97865 -21.33356,0.74989 -9.78429,7.29534 -19.80284,20.32344 -19.83336,25.79122 -0.0392,7.03492 31.32879,6.57367 39.23001,-0.57684 z m 178.07149,-1.39878 c -7.71457,-13.13941 -11.23432,-14.78491 -11.23432,-5.25212 0,6.09612 1.52156,8.84107 5.8695,10.58872 9.56946,3.84645 10.3188,3.10104 5.36482,-5.3366 z m -72.84048,-7.62543 c -1.09433,-6.84365 -0.68424,-10.43465 1.19164,-10.43465 1.57311,0 2.1845,-1.76085 1.35865,-3.91299 -1.6851,-4.39124 -18.07723,-5.37127 -24.27301,-1.4512 -5.90018,3.73301 0.45534,14.61931 12.13279,20.7821 5.44088,2.87144 10.19987,5.27269 10.57551,5.33611 0.37565,0.0634 -0.0678,-4.58031 -0.98558,-10.31937 z m 55.91811,-0.65216 c -0.61651,-4.34084 -3.37605,-6.49757 -10.59576,-8.2811 -11.85106,-2.92764 -13.54463,-1.62522 -9.48177,7.29182 2.48479,5.45349 4.94715,6.85877 12.01812,6.85877 7.73027,0 8.78401,-0.76743 8.05941,-5.86949 z m -121.99133,0.5745 c 4.19181,-2.24338 4.50522,-3.50971 1.9008,-7.68006 -2.54721,-4.07872 -2.26372,-5.93842 1.54714,-10.14938 4.50006,-4.97251 4.46787,-5.26158 -0.90621,-8.13769 -4.50146,-2.40911 -7.71766,-1.94337 -16.73969,2.42412 -6.14222,2.9734 -13.89519,8.30949 -17.22882,11.85798 l -6.06115,6.45179 8.88893,3.85768 c 10.52234,4.56655 21.63763,5.10118 28.599,1.37556 z m 38.98484,-1.39817 c 0,-0.8117 -1.25537,-3.82149 -2.78967,-6.6884 -2.01711,-3.76898 -1.95491,-6.21845 0.22461,-8.84456 8.0082,-9.6493 -8.40453,-11.36671 -22.20605,-2.32361 -8.86646,5.80953 -8.20888,11.02979 1.94534,15.44323 8.47303,3.68273 22.82579,5.20023 22.82579,2.41334 z m -102.5614,-17.67022 c 11.71351,-7.94862 12.22335,-12.31987 2.36918,-20.31291 -7.01564,-5.6906 -16.99575,-2.1356 -30.75826,10.95638 -11.68198,11.11279 -11.83772,16.07156 -0.57179,18.20458 9.96435,1.88658 15.74385,0.12083 28.96087,-8.84805 z m 157.34333,5.01579 c 0,-2.03257 1.13628,-4.0869 2.52505,-4.56515 5.55398,-1.91262 -2.38063,-7.86831 -12.24553,-9.19147 -12.57256,-1.68634 -15.92634,2.01463 -10.0092,11.04529 4.74356,7.23961 19.72968,9.29907 19.72968,2.71133 z M 261.6224,592.00024 c 9.17499,-4.26353 22.40974,-16.40615 20.24849,-18.57757 -1.26249,-1.26843 -21.77241,10.78293 -29.9932,17.62362 -7.92453,6.59416 -3.35537,7.04145 9.74471,0.95395 z m 232.9586,3.3664 c 0,-1.97725 -14.1299,-14.45321 -16.36927,-14.45321 -4.00449,0 3.72808,10.75355 9.36598,13.02511 7.18011,2.89293 7.00329,2.85687 7.00329,1.4281 z M 357.9383,583.06161 c 9.35669,-4.95563 10.66724,-6.72803 10.13207,-13.70272 -0.53404,-6.95996 -1.71952,-8.12053 -9.03657,-8.8467 -9.51303,-0.9441 -28.79856,10.06627 -28.79856,16.4415 0,3.13052 10.91678,11.2826 15.65197,11.68808 0.71738,0.0615 6.14037,-2.44964 12.05109,-5.58016 z m 85.09328,-2.54695 c 7.75582,-7.76129 3.10577,-12.64999 -11.98975,-12.60505 -19.0852,0.0568 -22.84881,3.04708 -14.72246,11.69719 7.3865,7.86258 19.35586,8.26938 26.71221,0.90786 z m -38.39397,-6.91943 c -0.79775,-2.07889 0.43681,-5.15978 2.74343,-6.84642 3.73336,-2.7299 3.76021,-3.42655 0.24443,-6.34438 -7.37977,-6.12466 -36.3134,5.28043 -31.82401,12.54443 1.10882,1.79411 5.6231,4.77867 10.03172,6.63235 9.50846,3.99801 21.20666,0.27414 18.80443,-5.98598 z m 55.23316,-4.50367 c -10.73372,-9.44307 -15.34083,-8.71583 -9.00953,1.42217 1.8651,2.98651 6.00964,5.147 9.78249,5.0995 l 6.54631,-0.0824 -7.31927,-6.43922 z m -117.89073,-10.39606 7.82017,-4.31809 -15.37142,1.37867 c -18.41691,1.65182 -22.57918,4.6857 -14.34296,10.45457 5.12796,3.59177 6.49941,3.65789 10.00814,0.48253 2.23623,-2.02377 7.58497,-5.62272 11.88607,-7.99768 z m 95.21038,1.34818 c 0,-1.43476 -0.88042,-2.65979 -1.9565,-2.72228 -1.07608,-0.0625 -6.94556,-1.07875 -13.04331,-2.25838 -11.37253,-2.20004 -13.45071,-1.03538 -7.95642,4.45892 3.77465,3.77467 22.95623,4.21062 22.95623,0.52174 z m -52.19088,-3.53504 c 7.91995,-3.33008 8.06606,-3.62427 2.52029,-5.07453 -3.2379,-0.84672 -9.25306,-0.8663 -13.36705,-0.0435 -5.97842,1.19569 -6.88378,2.21435 -4.51003,5.07453 3.68238,4.43701 4.89955,4.44045 15.35679,0.0435 z"
       id="path2996"
       inkscape:connector-curvature="0"
       sodipodi:nodetypes="sssssssssssssssssssssssssssscssscssscssssssscsccsscsscssssssssssssssssssssssssssscsssssccsssssscsssssssscssssssssssssssssssssssssssscsssssscsscssssssscssssssssssssscsssssscssssssssssssssssssssssssssssssscssssssccsscsssssssscssscssssssssssssssssssssssssssscsssssscsscssssssssscssssssssssssscssssssssssscssscssssssssssscssssssssssssscccsssscsssccsssssccsssssssssssssssssssssssssssssssssssssscsscsssssssssscssssssssscssccsscsssssssssssssssssssszcsscssssssscssscssssssssssssssssssssssssssssssssssssscsscssscssssssssssssssssssscsscscsssscsccsscssscsssssssssscsssssssssssssssssssssscssssccssssssssssscsscssssccsssssssssssssssssssssscssssssssssscsscccscssssssssssssss" />
  </g>
</svg>
